<?xml version="1.0" encoding="UTF-8" standalone="no"?>
<!-- Created with Inkscape (http://www.inkscape.org/) -->
<svg
   xmlns:dc="http://purl.org/dc/elements/1.1/"
   xmlns:cc="http://web.resource.org/cc/"
   xmlns:rdf="http://www.w3.org/1999/02/22-rdf-syntax-ns#"
   xmlns:svg="http://www.w3.org/2000/svg"
   xmlns="http://www.w3.org/2000/svg"
   xmlns:xlink="http://www.w3.org/1999/xlink"
   xmlns:sodipodi="http://sodipodi.sourceforge.net/DTD/sodipodi-0.dtd"
   xmlns:inkscape="http://www.inkscape.org/namespaces/inkscape"
   width="327.7648"
   height="543.57269"
   id="svg3224"
   sodipodi:version="0.32"
   inkscape:version="0.45"
   sodipodi:modified="true"
   version="1.0">
  <defs
     id="defs3226">
    <linearGradient
       id="linearGradient4129">
      <stop
         style="stop-color:#794d09;stop-opacity:1;"
         offset="0"
         id="stop4131" />
      <stop
         id="stop4137"
         offset="0.5"
         style="stop-color:#4a2f06;stop-opacity:1;" />
      <stop
         style="stop-color:#211502;stop-opacity:1;"
         offset="1"
         id="stop4133" />
    </linearGradient>
    <linearGradient
       inkscape:collect="always"
       xlink:href="#linearGradient4129"
       id="linearGradient4037"
       gradientUnits="userSpaceOnUse"
       gradientTransform="matrix(4.3681915,0,0,4.3367883,7400.5043,-3575.8478)"
       x1="-920.14105"
       y1="1041.0016"
       x2="-611.90857"
       y2="1041.0016" />
  </defs>
  <sodipodi:namedview
     id="base"
     pagecolor="#ffffff"
     bordercolor="#666666"
     borderopacity="1.0"
     inkscape:pageopacity="0.0"
     inkscape:pageshadow="2"
     inkscape:zoom="0.77634511"
     inkscape:cx="163.8824"
     inkscape:cy="271.78635"
     inkscape:document-units="px"
     inkscape:current-layer="layer1"
     inkscape:window-width="910"
     inkscape:window-height="626"
     inkscape:window-x="5"
     inkscape:window-y="49" />
  <metadata
     id="metadata3229">
    <rdf:RDF>
      <cc:Work
         rdf:about="">
        <dc:format>image/svg+xml</dc:format>
        <dc:type
           rdf:resource="http://purl.org/dc/dcmitype/StillImage" />
      </cc:Work>
    </rdf:RDF>
  </metadata>
  <g
     inkscape:label="Calque 1"
     inkscape:groupmode="layer"
     id="layer1"
     transform="translate(-241.83184,-232.00439)">
    <g
       style="display:inline"
       id="g3645"
       transform="matrix(9.2729986e-2,0,0,9.2729986e-2,28.331289,591.08532)">
      <path
         sodipodi:nodetypes="cscscsscscsc"
         id="path3647"
         d="M 4063.2128,-3840.3746 C 3959.4213,-3856.6408 3146.415,-2586.0475 3198.3108,-2488.6746 C 3212.7468,-2461.5882 3349.1535,-2422.3802 3539.4393,-2381.5452 C 3158.3899,-1822.1727 2723.3963,-1202.4361 2770.7741,-1113.5396 C 2788.1883,-1080.8651 2924.4458,-1036.2926 3125.8262,-988.2362 C 2745.0634,-389.82674 2406.2319,345.93815 2453.5342,434.69268 C 2550.1118,615.90301 5576.3136,1090.169 5672.8913,939.22993 C 5720.1938,865.30185 5381.3624,23.333719 5000.5994,-694.42197 C 5201.9798,-679.35772 5338.2373,-681.22176 5355.6514,-708.43793 C 5403.0295,-782.48418 4968.0356,-1538.5653 4586.9862,-2217.3738 C 4777.2721,-2198.5656 4913.6787,-2195.0184 4928.1147,-2217.58 C 4980.0105,-2298.6868 4167.0044,-3824.1084 4063.2128,-3840.3746 z "
         style="color:#000000;fill:#258625;fill-opacity:1;fill-rule:evenodd;stroke:none;stroke-width:4;stroke-linecap:round;stroke-linejoin:round;marker:none;marker-start:none;marker-mid:none;marker-end:none;stroke-miterlimit:4;stroke-dasharray:none;stroke-dashoffset:0;stroke-opacity:1;visibility:visible;display:inline;overflow:visible;enable-background:accumulate" />
      <path
         sodipodi:nodetypes="cscscsscscsc"
         id="path3649"
         d="M 4076.1933,-3865.573 C 4179.1566,-3872.6903 5035.191,-2522.6101 4986.8701,-2429.3125 C 4973.4285,-2403.3597 4838.7417,-2376.0758 4650.3643,-2351.9525 C 5050.3005,-1755.5273 5506.1878,-1093.5981 5462.0737,-1008.422 C 5445.859,-977.11499 5311.5111,-944.42336 5112.3219,-914.02592 C 5513.3547,-278.37096 5877.4231,491.67504 5833.3792,576.71509 C 5743.4543,750.34152 2741.3993,957.85457 2639.7101,797.4732 C 2589.9041,718.92035 2898.0914,-97.594392 3252.5079,-785.46876 C 3052.1501,-788.24804 2916.1575,-802.25278 2897.8217,-831.17152 C 2847.9361,-909.84989 3255.0944,-1631.4363 3611.1761,-2280.12 C 3422.0184,-2278.1467 3286.0687,-2286.7231 3270.8687,-2310.6961 C 3216.2262,-2396.8768 3973.2299,-3858.4558 4076.1933,-3865.573 z "
         style="color:#000000;fill:#103a10;fill-opacity:1;fill-rule:evenodd;stroke:none;stroke-width:4;stroke-linecap:round;stroke-linejoin:round;marker:none;marker-start:none;marker-mid:none;marker-end:none;stroke-miterlimit:4;stroke-dasharray:none;stroke-dashoffset:0;stroke-opacity:1;visibility:visible;display:inline;overflow:visible;enable-background:accumulate" />
      <path
         style="color:#000000;fill:url(#linearGradient4037);fill-opacity:1;fill-rule:evenodd;stroke:none;stroke-width:4;stroke-linecap:round;stroke-linejoin:round;marker:none;marker-start:none;marker-mid:none;marker-end:none;stroke-miterlimit:4;stroke-dashoffset:0;stroke-opacity:1;visibility:visible;display:inline;overflow:visible;enable-background:accumulate"
         d="M 3752.3344,553.81357 L 4374.0912,452.89761 L 4497.4329,1825.5869 C 4497.4329,2047.3095 3628.9927,2041.1005 3628.9927,1825.5869 L 3752.3344,553.81357 z "
         id="path3651"
         sodipodi:nodetypes="ccccc" />
      <path
         sodipodi:nodetypes="cscscsscscsc"
         id="path3653"
         d="M 4063.201,-3871.9949 C 3960.2377,-3895.3776 3104.2033,-2680.528 3152.5242,-2579.5969 C 3165.9658,-2551.5207 3300.6526,-2502.9599 3489.03,-2449.078 C 3089.0938,-1915.8321 2633.2065,-1325.9208 2677.3206,-1233.7759 C 2693.5353,-1199.9074 2827.8832,-1145.9924 3027.0724,-1084.1284 C 2626.0396,-511.82591 2261.9712,200.70702 2306.0151,292.70483 C 2395.94,480.53699 5397.995,1162.2944 5499.6842,1017.9772 C 5549.4902,947.29234 5241.3029,82.092247 4886.8864,-661.77044 C 5087.2442,-632.89855 5223.2368,-625.4201 5241.5726,-651.44227 C 5291.4582,-722.24005 4884.2999,-1508.1465 4528.2182,-2213.0816 C 4717.3759,-2181.2265 4853.3256,-2168.3265 4868.5256,-2189.8983 C 4923.1681,-2267.4469 4166.1644,-3848.6122 4063.201,-3871.9949 z "
         style="color:#000000;fill:#1c661c;fill-opacity:1;fill-rule:evenodd;stroke:none;stroke-width:4;stroke-linecap:round;stroke-linejoin:round;marker:none;marker-start:none;marker-mid:none;marker-end:none;stroke-miterlimit:4;stroke-dasharray:none;stroke-dashoffset:0;stroke-opacity:1;visibility:visible;display:inline;overflow:visible;enable-background:accumulate" />
      <path
         id="path3655"
         d="M 4063.2188,-3840.375 C 3959.4271,-3802.241 3146.4167,-2105.5166 3198.3125,-2035.3439 C 3212.7485,-2015.8237 3349.1517,-2048.1086 3539.4375,-2107.0079 C 3158.3881,-1347.9167 2723.4031,-500.20574 2770.7812,-436.1415 C 2788.1953,-412.59428 2924.432,-439.42618 3125.8125,-496.91904 C 2745.0495,301.05909 2406.2288,1214.4096 2453.5312,1278.3717 C 2501.8201,1343.6673 3282.5239,1098.3652 4063.2188,811.53125 L 4063.2188,-3840.375 z "
         style="color:#000000;fill:#165316;fill-opacity:1;fill-rule:evenodd;stroke:none;stroke-width:4;stroke-linecap:round;stroke-linejoin:round;marker:none;marker-start:none;marker-mid:none;marker-end:none;stroke-miterlimit:4;stroke-dasharray:none;stroke-dashoffset:0;stroke-opacity:1;visibility:visible;display:inline;overflow:visible;enable-background:accumulate" />
      <path
         sodipodi:nodetypes="cscscscc"
         id="path3657"
         d="M 4074.9707,-3862.8008 C 4125.4072,-3796.7585 4520.481,-1959.5836 4495.2628,-1908.354 C 4488.2477,-1894.1033 4421.9641,-1964.0622 4329.4968,-2074.7427 C 4514.6637,-1247.803 4726.04,-321.58752 4703.0171,-274.81741 C 4694.555,-257.62675 4628.3522,-322.38929 4530.4934,-434.95309 C 4715.5213,428.61657 4880.1676,1388.9694 4857.1815,1435.6649 C 4833.716,1483.3339 4476.7669,1149.1299 4074.9707,786.93149 L 4074.9707,-3862.8008 z "
         style="color:#000000;fill:#207720;fill-opacity:1;fill-rule:evenodd;stroke:none;stroke-width:4;stroke-linecap:round;stroke-linejoin:round;marker:none;marker-start:none;marker-mid:none;marker-end:none;stroke-miterlimit:4;stroke-dasharray:none;stroke-dashoffset:0;stroke-opacity:1;visibility:visible;display:inline;overflow:visible;enable-background:accumulate" />
    </g>
  </g>
</svg>
