<?xml version="1.0" standalone="no"?>
<!DOCTYPE svg PUBLIC "-//W3C//DTD SVG 20010904//EN"
 "http://www.w3.org/TR/2001/REC-SVG-20010904/DTD/svg10.dtd">
<svg version="1.0" xmlns="http://www.w3.org/2000/svg"
 width="788.000000pt" height="788.000000pt" viewBox="0 0 788.000000 788.000000"
 preserveAspectRatio="xMidYMid meet">
<metadata>
Created by potrace 1.14, written by Peter Selinger 2001-2017
</metadata>
<g transform="translate(0.000000,788.000000) scale(0.100000,-0.100000)"
fill="#000000" stroke="none">
<path d="M3803 7824 c4 -8 -6 -12 -31 -12 -20 -1 -53 -4 -72 -8 -19 -4 -47 -7
-62 -8 -16 0 -28 -4 -28 -8 0 -5 -13 -8 -30 -8 -16 0 -30 -4 -30 -8 0 -4 -12
-9 -26 -10 -14 -1 -31 -5 -37 -9 -7 -4 -19 -8 -27 -8 -8 -1 -32 -9 -54 -18
-21 -9 -40 -17 -41 -17 -2 0 -39 -17 -82 -37 -43 -20 -81 -36 -85 -35 -3 1
-12 -5 -18 -13 -7 -8 -19 -15 -27 -15 -8 0 -27 -9 -43 -20 -15 -11 -30 -17
-34 -13 -3 3 -6 2 -6 -4 0 -9 -34 -24 -49 -22 -2 0 -7 -3 -10 -8 -8 -12 -121
-75 -121 -67 0 3 -7 -2 -16 -10 -8 -9 -20 -14 -25 -11 -5 4 -9 2 -9 -4 0 -10
-38 -27 -52 -23 -5 1 -8 -5 -8 -13 0 -8 -3 -14 -7 -13 -12 4 -73 -26 -73 -35
0 -5 -4 -5 -10 -2 -5 3 -10 1 -10 -5 0 -6 -4 -8 -10 -5 -5 3 -10 1 -10 -6 0
-7 -3 -9 -7 -6 -3 4 -11 3 -17 -2 -16 -13 -79 -48 -161 -89 -38 -20 -71 -39
-73 -43 -2 -5 -9 -6 -16 -3 -8 3 -20 -1 -28 -9 -8 -8 -48 -32 -89 -53 -41 -21
-76 -41 -79 -44 -14 -14 -52 -30 -60 -25 -6 4 -10 2 -10 -4 0 -5 -46 -33 -102
-62 -57 -28 -105 -54 -108 -58 -3 -3 -27 -17 -55 -31 -27 -14 -57 -30 -65 -37
-8 -6 -18 -12 -23 -12 -15 -2 -102 -45 -105 -53 -2 -4 -12 -8 -22 -8 -9 0 -23
-7 -30 -15 -7 -8 -21 -15 -31 -15 -11 0 -19 -5 -19 -11 0 -5 -5 -7 -10 -4 -5
3 -10 1 -10 -5 0 -6 -4 -8 -10 -5 -5 3 -10 1 -10 -4 0 -6 -9 -11 -19 -11 -11
0 -23 -5 -27 -11 -3 -6 -26 -20 -50 -31 -24 -10 -44 -24 -44 -30 0 -6 -3 -8
-7 -5 -3 4 -20 -2 -38 -13 -18 -11 -36 -16 -40 -12 -5 4 -5 2 -2 -4 4 -7 -10
-16 -33 -24 -21 -7 -41 -19 -44 -26 -3 -8 -14 -14 -25 -14 -11 0 -23 -5 -26
-10 -4 -6 -10 -8 -15 -5 -4 3 -10 -2 -14 -10 -3 -8 -12 -15 -19 -15 -8 0 -20
-7 -27 -15 -7 -8 -16 -13 -20 -10 -5 3 -16 -2 -24 -11 -9 -8 -16 -13 -16 -10
0 4 -18 -5 -39 -18 -21 -14 -42 -22 -45 -19 -3 4 -6 1 -6 -5 0 -9 -29 -23 -50
-25 -3 -1 -14 -9 -24 -19 -11 -10 -26 -18 -33 -18 -7 0 -13 -5 -13 -11 0 -5
-5 -7 -10 -4 -6 3 -10 1 -10 -5 0 -6 -4 -8 -10 -5 -5 3 -10 2 -10 -4 0 -5 -10
-13 -22 -17 -64 -20 -207 -142 -303 -258 -22 -27 -48 -57 -57 -67 -9 -9 -13
-20 -10 -24 4 -4 -2 -13 -13 -21 -11 -8 -19 -18 -18 -22 3 -6 -20 -86 -35
-122 -7 -18 -13 -47 -15 -77 -1 -13 -6 -23 -10 -23 -5 0 -5 -9 -2 -20 4 -12 2
-20 -6 -20 -9 0 -8 -4 1 -15 7 -8 8 -15 3 -15 -5 0 -9 -16 -8 -35 1 -19 -2
-35 -8 -35 -5 0 -4 -7 3 -15 7 -8 9 -15 4 -15 -5 0 -9 -69 -9 -152 0 -87 -4
-159 -10 -167 -7 -11 -7 -13 2 -8 8 5 11 0 10 -13 -1 -11 -6 -20 -12 -20 -6 0
-7 -3 0 -8 6 -4 10 -25 10 -47 0 -22 -4 -43 -10 -47 -7 -5 -7 -8 0 -8 6 0 10
-38 10 -92 0 -51 -4 -96 -10 -100 -7 -5 -7 -8 0 -8 8 0 11 -204 5 -335 -1 -16
-2 -32 -1 -35 6 -27 4 -570 -2 -570 -5 0 -6 -4 -2 -9 7 -13 12 -761 4 -761 -3
0 -4 -12 -2 -27 9 -71 7 -333 -2 -337 -7 -3 -7 -5 0 -5 6 -1 10 -71 9 -191 0
-114 3 -190 9 -190 5 0 4 -6 -2 -13 -6 -8 -8 -17 -5 -20 3 -3 8 -27 11 -54 6
-66 7 -76 16 -90 4 -6 2 -15 -4 -19 -8 -4 -8 -9 -1 -13 6 -3 13 -20 16 -36 2
-17 5 -30 6 -30 1 0 4 -11 6 -25 3 -14 9 -27 14 -28 6 -2 8 -7 5 -11 -2 -5 7
-31 20 -60 14 -28 25 -55 25 -61 0 -5 4 -10 9 -10 10 0 27 -39 23 -52 -1 -5 4
-8 11 -8 8 0 19 -11 25 -25 7 -14 18 -32 24 -41 33 -38 107 -111 137 -134 18
-14 45 -36 59 -50 14 -14 27 -23 29 -20 1 3 12 -3 23 -13 11 -9 27 -17 35 -17
8 0 15 -4 15 -10 0 -5 7 -10 15 -10 8 0 15 -4 15 -10 0 -5 9 -10 19 -10 11 0
21 -4 23 -8 2 -5 41 -28 88 -53 47 -24 87 -47 88 -51 2 -5 9 -8 16 -8 7 0 29
-11 49 -24 19 -13 38 -22 41 -19 3 3 8 -1 12 -10 3 -9 12 -13 20 -10 8 3 14 1
14 -5 0 -5 25 -20 55 -33 30 -13 55 -27 55 -31 0 -5 9 -8 20 -8 11 0 20 -4 20
-8 0 -9 103 -58 108 -51 2 2 8 -4 13 -14 6 -9 14 -15 20 -12 5 4 12 -1 15 -9
3 -9 9 -14 14 -11 4 2 28 -9 54 -25 26 -17 53 -30 61 -30 8 0 15 -4 15 -10 0
-5 7 -10 15 -10 8 0 15 -4 15 -10 0 -5 9 -10 20 -10 10 0 23 -6 27 -14 4 -8
11 -15 16 -15 21 -2 57 -14 57 -20 0 -3 15 -12 33 -19 17 -8 49 -23 69 -33 21
-11 38 -17 38 -13 0 4 9 -3 19 -15 11 -12 21 -21 23 -20 6 4 83 -35 90 -45 4
-6 8 -7 8 -2 0 5 7 3 15 -4 8 -7 15 -9 15 -4 0 5 5 1 11 -9 6 -9 14 -15 20
-12 5 4 9 2 9 -3 0 -4 16 -14 35 -22 19 -8 35 -16 35 -20 0 -3 16 -12 35 -19
19 -7 35 -17 35 -23 0 -6 3 -8 7 -5 3 4 15 -1 26 -10 15 -13 19 -14 13 -3 -4
8 0 6 8 -4 9 -11 16 -16 16 -10 0 5 3 5 8 -1 8 -11 9 -12 147 -85 55 -29 103
-58 107 -64 5 -6 8 -7 8 -1 0 6 7 1 16 -10 8 -11 16 -18 17 -16 4 8 47 -11 47
-20 0 -6 4 -8 8 -5 5 3 24 -5 43 -18 19 -13 44 -26 57 -30 12 -4 22 -12 22
-17 0 -5 9 -9 19 -9 11 0 21 -3 23 -7 2 -5 24 -19 51 -32 26 -13 47 -28 47
-33 0 -5 3 -7 8 -5 4 2 21 -4 37 -14 17 -11 38 -22 48 -25 9 -4 17 -10 17 -15
0 -5 3 -8 8 -7 14 3 62 -22 62 -32 0 -6 4 -9 9 -6 5 3 20 -4 35 -15 14 -11 26
-17 26 -12 0 4 7 -1 15 -11 8 -11 15 -16 15 -12 0 5 8 2 17 -5 14 -12 16 -12
8 0 -5 8 8 2 28 -13 20 -15 38 -26 41 -24 3 2 14 -4 24 -13 10 -9 26 -15 35
-13 9 1 17 -2 17 -7 0 -5 9 -9 19 -9 11 0 26 -6 33 -12 7 -7 24 -15 38 -16 14
-2 30 -7 35 -11 12 -9 119 -34 155 -36 14 0 31 -5 38 -9 7 -4 50 -9 96 -11 46
-1 89 -6 95 -9 6 -4 11 -3 11 3 0 5 9 9 20 8 11 -1 20 -5 20 -10 0 -5 6 -4 14
2 11 9 20 9 34 2 11 -6 22 -7 26 -4 7 7 31 14 56 15 8 0 21 5 28 11 8 6 12 6
12 -3 0 -10 3 -10 14 -1 8 6 18 11 22 10 5 -1 12 0 17 1 4 1 16 4 27 5 11 1
22 4 25 5 3 1 10 4 15 5 6 1 12 4 15 5 3 1 13 3 23 4 9 1 35 10 57 20 61 27
88 37 109 42 11 2 23 9 26 15 4 6 19 12 33 12 14 1 23 5 21 9 -2 4 12 12 31
19 19 7 35 17 35 22 0 4 4 6 9 2 5 -3 17 2 25 11 9 8 16 13 16 9 0 -3 10 0 23
7 12 7 26 11 30 10 5 -1 6 2 3 7 -4 5 4 13 16 16 13 4 31 14 41 23 9 8 17 11
17 7 0 -4 8 -1 18 8 9 8 20 16 25 16 13 1 71 33 90 49 9 8 17 11 17 7 0 -4 9
0 20 10 11 10 20 14 20 9 0 -5 4 -4 8 1 8 11 18 17 112 65 36 19 67 36 70 39
3 4 27 17 55 31 27 14 56 31 63 38 8 7 18 10 23 7 5 -4 9 -2 9 3 0 6 12 15 28
21 28 11 130 66 173 95 14 9 29 13 32 9 4 -3 7 1 7 10 0 10 7 15 20 12 12 -2
20 2 20 10 0 8 6 12 13 9 7 -2 22 4 34 15 11 11 24 17 27 14 3 -4 6 -1 6 6 0
7 6 11 14 8 8 -3 22 3 31 13 10 11 21 17 26 15 4 -3 14 2 23 10 8 9 18 14 20
13 3 -2 13 4 23 12 10 9 20 16 23 17 47 16 148 71 143 78 -5 4 0 5 10 2 9 -4
17 -2 17 4 0 6 5 7 10 4 6 -3 10 -2 10 3 0 5 15 16 33 23 17 7 38 20 45 29 8
8 11 9 7 2 -4 -7 9 -4 29 8 20 11 52 29 71 40 19 11 35 16 35 12 0 -4 4 -2 8
4 4 6 45 31 92 55 47 24 87 47 88 52 2 4 8 5 13 1 5 -3 9 -1 9 4 0 6 11 13 25
16 14 4 25 11 25 17 0 6 4 8 9 4 5 -3 15 0 23 7 7 7 20 14 28 16 8 2 17 7 20
10 9 12 104 57 113 54 5 -1 6 2 2 8 -3 5 -1 10 5 10 7 0 25 9 41 21 16 11 29
17 29 13 0 -4 8 0 18 9 10 10 22 14 25 10 4 -3 7 -1 7 5 0 7 7 12 15 12 8 0
15 5 15 11 0 5 5 7 10 4 6 -3 10 -2 10 3 0 6 7 13 16 16 10 4 13 2 8 -7 -4 -6
4 -3 17 8 33 28 85 55 93 50 3 -3 4 -2 1 2 -4 6 9 14 78 50 15 8 27 19 27 24
0 6 5 7 10 4 6 -3 10 -1 10 6 0 7 3 10 6 6 5 -5 33 15 70 51 7 6 18 12 24 12
6 0 9 3 7 8 -6 9 19 33 27 25 3 -4 6 1 6 10 0 8 9 19 20 22 11 3 20 11 20 16
0 6 10 21 23 34 31 34 41 46 63 80 10 17 23 33 29 37 5 4 6 8 2 8 -5 0 1 13
12 29 12 16 21 34 21 40 0 6 3 11 8 11 4 0 16 27 26 60 11 33 23 60 27 60 5 0
6 7 3 15 -4 8 -1 21 5 29 6 7 12 26 13 42 1 16 4 34 7 39 3 6 6 19 7 30 2 11
5 43 9 70 3 28 7 92 8 142 1 51 5 93 9 93 8 0 5 21 -5 38 -5 6 -5 12 0 12 4 0
7 222 6 492 -1 271 -3 493 -3 493 -1 0 -2 28 -3 63 -1 34 0 62 3 62 3 0 5 20
5 45 0 25 -4 45 -10 45 -7 0 -7 3 0 8 6 4 10 34 10 67 0 33 -4 63 -10 67 -7 5
-7 8 0 8 11 0 11 462 0 480 -3 5 -3 10 2 10 7 0 9 93 2 110 -1 3 -1 9 0 14 5
28 2 336 -4 345 -3 6 -3 11 2 11 7 0 9 93 2 110 -1 3 0 9 1 15 5 28 -4 420
-10 420 -1 0 -4 25 -6 55 -5 58 -10 95 -13 95 -2 0 -7 30 -15 83 -1 12 -6 25
-9 29 -4 3 -7 15 -7 25 0 10 -3 18 -7 18 -5 0 -9 10 -10 23 -5 50 -8 62 -18
69 -5 4 -10 11 -10 15 -1 4 -6 18 -13 31 -7 12 -10 22 -6 22 4 0 -3 8 -14 19
-12 10 -19 21 -15 25 3 3 0 6 -7 6 -7 0 -11 3 -7 6 3 3 -4 16 -16 29 -37 38
-57 65 -57 76 0 5 -4 7 -10 4 -5 -3 -10 -2 -10 3 0 10 -51 63 -92 94 -17 13
-38 31 -46 41 -9 9 -22 17 -29 17 -7 0 -13 4 -13 9 0 5 -13 14 -30 21 -16 7
-30 15 -30 19 0 3 -18 15 -40 25 -22 11 -40 23 -40 28 0 5 -4 7 -9 4 -5 -4
-11 -3 -13 1 -1 5 -38 26 -80 48 -43 22 -78 44 -78 48 0 5 -6 7 -12 5 -7 -3
-20 3 -30 11 -9 9 -39 27 -65 41 -26 13 -50 27 -53 30 -3 3 -19 12 -35 21 -92
47 -141 75 -153 87 -8 7 -18 10 -23 7 -5 -4 -9 -2 -9 2 0 5 -22 20 -50 34 -27
13 -50 28 -50 32 0 5 -4 5 -10 2 -5 -3 -10 -1 -10 6 0 7 -3 9 -7 6 -3 -4 -11
-3 -17 2 -6 5 -38 23 -71 41 -123 66 -140 75 -145 80 -13 13 -70 40 -70 33 0
-4 -4 -3 -8 2 -9 13 -72 48 -72 40 0 -3 -10 3 -22 15 -12 11 -28 20 -36 20 -7
0 -20 7 -28 15 -8 8 -21 12 -29 9 -8 -4 -15 -1 -15 5 0 6 -10 15 -22 20 -13 5
-51 25 -85 44 -34 19 -64 33 -67 29 -3 -3 -6 0 -6 6 0 7 -7 12 -15 12 -8 0
-15 5 -15 10 0 6 -7 10 -15 10 -8 0 -30 9 -50 20 -20 11 -42 20 -51 20 -8 0
-12 5 -9 10 3 6 -3 10 -14 10 -12 0 -21 5 -21 11 0 5 -5 7 -10 4 -6 -3 -13 1
-16 9 -3 9 -10 14 -14 11 -5 -3 -16 2 -24 11 -9 9 -22 17 -29 19 -37 9 -57 18
-57 26 0 5 -7 9 -15 9 -8 0 -15 4 -15 10 0 5 -6 7 -13 4 -8 -3 -20 2 -27 11
-7 8 -21 15 -31 15 -11 0 -19 3 -19 8 0 4 -33 23 -73 42 -39 19 -74 37 -77 40
-17 17 -200 110 -215 110 -8 0 -15 3 -15 8 0 6 -72 42 -90 45 -3 0 -10 5 -17
11 -23 20 -39 31 -48 33 -26 4 -40 8 -45 13 -10 11 -62 30 -80 30 -10 0 -20 5
-22 10 -2 6 -18 11 -36 13 -17 1 -32 5 -32 10 0 4 -11 7 -25 7 -14 0 -25 4
-25 8 0 5 -6 9 -12 9 -14 1 -38 6 -105 21 -23 5 -44 7 -48 4 -3 -3 -5 -1 -5 4
0 9 -55 16 -132 17 -21 1 -38 6 -38 12 0 5 -5 3 -10 -5 -5 -8 -10 -10 -10 -4
0 13 -62 12 -72 -1 -5 -6 -8 -6 -8 2 0 6 -9 11 -20 10 -11 -1 -20 -5 -20 -9 0
-4 -11 -3 -25 2 -16 6 -26 6 -31 -1 -4 -6 -11 -5 -22 3 -9 7 -13 8 -9 2z m222
-504 c0 -1 22 -3 49 -5 27 -2 52 -7 55 -12 3 -4 15 -9 26 -9 33 -2 87 -14 104
-23 9 -5 21 -10 26 -11 6 -1 28 -9 50 -18 22 -9 43 -16 48 -14 4 1 7 -3 7 -9
0 -5 4 -8 9 -5 5 3 14 -1 21 -9 7 -8 19 -15 26 -15 8 0 14 -5 14 -12 0 -6 3
-8 6 -5 7 7 64 -22 76 -38 4 -5 8 -7 8 -2 0 8 113 -53 118 -65 2 -4 12 -8 21
-8 10 0 30 -9 45 -21 14 -11 26 -17 26 -12 0 4 4 3 8 -3 10 -16 87 -54 109
-54 15 0 16 -2 3 -10 -12 -8 -11 -10 8 -10 12 0 22 -4 22 -10 0 -5 4 -9 8 -7
8 2 103 -43 112 -54 5 -5 39 -20 50 -21 3 0 16 -9 29 -19 13 -10 27 -16 32
-13 5 3 9 1 9 -4 0 -10 131 -78 143 -74 4 1 7 -2 7 -7 0 -5 25 -21 55 -35 30
-15 57 -31 60 -36 3 -5 19 -11 36 -15 17 -4 33 -13 36 -21 3 -8 13 -14 23 -14
10 0 23 -7 30 -15 7 -8 16 -12 21 -9 5 3 9 1 9 -4 0 -8 35 -23 49 -21 2 0 7
-3 10 -8 9 -12 71 -45 71 -38 0 3 10 -3 22 -15 12 -11 27 -20 34 -20 6 0 17
-7 24 -15 7 -9 15 -13 18 -11 2 3 22 -6 43 -20 21 -13 39 -21 39 -18 0 4 8 0
18 -8 9 -9 51 -33 92 -53 41 -21 77 -41 78 -46 2 -5 12 -9 23 -9 10 0 19 -5
19 -11 0 -5 4 -8 9 -5 5 3 14 -1 21 -9 7 -8 16 -12 21 -10 4 3 12 -3 18 -12 6
-10 11 -15 11 -10 0 8 112 -52 121 -66 4 -5 11 -7 17 -3 5 3 13 -1 16 -10 3
-8 10 -12 16 -9 5 3 10 2 10 -3 0 -5 18 -17 40 -27 22 -10 40 -22 40 -27 0 -5
5 -6 10 -3 6 3 10 1 10 -4 0 -6 7 -11 15 -11 8 0 35 -13 61 -30 26 -16 51 -27
55 -24 5 3 9 -2 9 -10 0 -9 8 -16 19 -16 11 0 26 -6 33 -12 7 -7 20 -14 28
-16 8 -2 31 -13 50 -25 19 -12 37 -22 40 -22 3 0 16 -8 30 -17 14 -9 45 -28
70 -43 25 -16 52 -36 61 -47 9 -10 20 -18 25 -18 5 0 17 -12 26 -28 10 -15 22
-34 28 -42 6 -8 18 -33 27 -55 16 -39 18 -46 27 -82 3 -10 5 -18 6 -18 3 0 11
-63 12 -97 1 -21 4 -38 7 -38 4 0 6 -400 6 -889 0 -528 -4 -887 -9 -883 -5 3
-5 -1 0 -9 10 -17 13 -829 2 -835 -4 -3 -4 -15 0 -27 10 -27 9 -368 -1 -383
-4 -7 -8 -32 -9 -58 -2 -25 -7 -46 -11 -46 -5 0 -5 -4 -2 -10 3 -5 1 -10 -5
-10 -6 0 -9 -4 -5 -9 3 -5 0 -13 -6 -16 -5 -4 -8 -13 -5 -21 3 -8 2 -14 -2
-14 -4 0 -16 -17 -27 -37 -11 -21 -32 -51 -47 -66 -16 -16 -28 -33 -28 -39 0
-6 -3 -9 -6 -5 -3 3 -19 -8 -35 -24 -15 -16 -33 -29 -39 -29 -6 0 -20 -9 -32
-20 -12 -10 -24 -17 -28 -15 -4 2 -16 -3 -26 -13 -11 -9 -42 -28 -69 -42 -28
-14 -58 -31 -67 -39 -10 -8 -18 -11 -18 -8 0 3 -32 -12 -71 -34 -40 -21 -76
-39 -80 -39 -5 0 -9 -4 -9 -9 0 -5 -12 -12 -27 -16 -15 -3 -30 -10 -33 -15 -3
-5 -12 -10 -20 -12 -8 -2 -21 -9 -29 -16 -7 -7 -20 -11 -28 -8 -8 3 -12 2 -9
-3 3 -4 -18 -19 -47 -32 -29 -13 -55 -28 -59 -34 -4 -5 -8 -6 -8 -2 0 5 -13
-1 -29 -12 -16 -12 -34 -21 -39 -21 -6 0 -17 -6 -24 -13 -17 -16 -158 -90
-158 -83 0 3 -9 -3 -20 -14 -11 -11 -27 -20 -35 -20 -8 0 -15 -3 -15 -8 0 -4
-28 -20 -62 -36 -35 -16 -71 -36 -80 -44 -10 -8 -18 -11 -18 -7 0 4 -9 0 -20
-10 -11 -10 -20 -14 -20 -9 0 5 -7 0 -16 -11 -8 -11 -16 -19 -17 -17 -3 4 -41
-10 -47 -18 -3 -3 -24 -14 -47 -24 -24 -11 -43 -24 -43 -29 0 -6 -3 -7 -6 -4
-4 4 -20 -3 -35 -14 -16 -11 -29 -17 -29 -12 0 4 -4 4 -8 -2 -4 -5 -32 -23
-62 -39 -30 -16 -63 -36 -72 -44 -10 -8 -18 -11 -18 -7 0 4 -8 2 -17 -6 -10
-8 -31 -21 -48 -29 -16 -8 -45 -25 -64 -39 -19 -13 -31 -19 -27 -13 5 8 2 10
-9 6 -9 -4 -14 -9 -11 -11 6 -6 -84 -56 -101 -56 -7 0 -13 -4 -13 -8 0 -4 -16
-13 -35 -20 -19 -7 -35 -17 -35 -22 0 -4 -5 -5 -10 -2 -6 3 -13 -1 -16 -9 -3
-9 -10 -13 -15 -10 -5 3 -9 0 -9 -6 0 -6 -4 -9 -9 -6 -5 4 -11 3 -13 -2 -1 -4
-30 -21 -63 -37 -33 -16 -62 -32 -65 -35 -3 -3 -22 -14 -42 -25 -21 -11 -38
-23 -38 -28 0 -4 -4 -5 -10 -2 -5 3 -10 1 -10 -5 0 -6 -4 -8 -10 -5 -5 3 -10
1 -10 -4 0 -6 -9 -11 -20 -11 -11 0 -20 -4 -20 -9 0 -5 -10 -13 -22 -17 -13
-4 -40 -18 -60 -31 -21 -13 -38 -20 -38 -16 0 5 -4 2 -9 -5 -4 -7 -17 -15 -27
-16 -10 -2 -18 -9 -16 -15 1 -6 -1 -10 -5 -10 -22 4 -43 -3 -57 -16 -8 -9 -17
-15 -18 -14 -9 5 -88 -26 -88 -34 0 -6 -2 -8 -6 -5 -3 3 -26 0 -51 -8 -25 -8
-49 -11 -54 -8 -5 3 -9 1 -9 -4 0 -11 -4 -11 -133 -15 -48 -1 -87 -6 -87 -11
0 -5 -6 -4 -12 1 -7 6 -20 11 -28 11 -57 5 -107 15 -119 25 -12 10 -13 9 -6
-3 7 -12 6 -13 -6 -4 -8 6 -27 15 -44 19 -44 12 -45 12 -50 15 -3 1 -8 3 -12
4 -5 1 -39 18 -78 37 -38 20 -74 37 -80 39 -5 1 -27 14 -47 26 -21 13 -42 24
-48 24 -5 0 -10 5 -10 11 0 5 -5 7 -10 4 -6 -3 -10 -3 -10 2 0 4 -15 14 -32
22 -18 8 -46 23 -61 34 -35 24 -143 83 -179 98 -16 6 -28 15 -28 20 0 5 -3 9
-7 8 -16 -2 -53 14 -53 23 0 5 -4 7 -9 4 -5 -3 -14 1 -21 9 -7 8 -21 15 -32
15 -10 0 -16 5 -13 10 3 6 -3 10 -14 10 -12 0 -21 5 -21 10 0 6 -6 10 -14 10
-7 0 -30 11 -50 25 -21 14 -42 23 -47 20 -5 -4 -9 -1 -9 4 0 6 -6 11 -14 11
-8 0 -16 3 -18 8 -3 6 -96 58 -155 86 -13 6 -23 15 -23 19 0 5 -4 6 -9 3 -5
-3 -14 1 -21 9 -7 8 -19 15 -26 15 -8 0 -14 4 -14 10 0 5 -3 9 -7 9 -25 -4
-43 3 -43 16 0 8 -3 14 -7 13 -12 -4 -122 55 -118 62 5 7 -74 44 -87 41 -5 0
-8 4 -8 10 0 5 -4 8 -9 5 -5 -4 -11 -3 -13 1 -1 5 -34 23 -73 42 -38 19 -73
39 -76 43 -3 5 -15 10 -27 11 -11 0 -18 5 -16 9 3 4 -4 8 -16 8 -11 0 -23 7
-26 15 -4 8 -10 12 -15 9 -5 -3 -9 0 -9 6 0 6 -4 9 -9 6 -5 -3 -11 1 -15 9 -3
8 -12 12 -21 9 -8 -3 -15 -2 -15 3 0 5 -22 20 -50 33 -27 13 -50 27 -50 31 0
5 -7 5 -17 2 -11 -4 -14 -3 -9 5 4 7 1 12 -6 12 -20 0 -68 24 -68 33 0 5 -5 5
-10 2 -6 -3 -10 -1 -10 5 0 6 -4 8 -10 5 -5 -3 -10 -2 -10 3 0 10 -60 38 -72
34 -5 -1 -8 2 -8 6 0 4 -22 19 -50 33 -27 13 -50 28 -50 32 0 5 -4 6 -9 2 -5
-3 -16 2 -25 10 -8 9 -19 16 -23 16 -9 0 -134 62 -178 88 -16 10 -33 16 -38
14 -4 -2 -7 1 -7 7 0 6 -4 9 -9 6 -5 -3 -11 1 -15 9 -3 8 -15 15 -26 15 -11 0
-20 4 -20 9 0 5 -16 15 -35 21 -19 6 -35 16 -35 21 0 5 -7 9 -16 9 -9 0 -25
10 -35 22 -11 11 -19 17 -19 13 0 -5 -19 12 -42 38 -59 63 -70 77 -62 77 4 0
1 8 -7 18 -33 39 -55 105 -63 188 -1 16 -6 36 -10 42 -4 7 -3 12 1 12 5 0 9 9
9 20 0 11 -3 20 -6 20 -8 0 -5 44 4 58 4 7 3 12 -3 12 -7 0 -7 8 -1 26 6 15 6
23 1 19 -6 -3 -6 6 -1 25 5 16 5 30 1 30 -9 0 -8 31 3 48 4 7 2 12 -4 12 -8 0
-8 6 0 20 8 14 8 20 0 20 -7 0 -8 6 0 19 7 14 7 22 0 26 -8 5 -8 11 0 20 8 10
8 15 0 20 -8 5 -8 10 0 20 8 9 8 15 0 20 -7 4 -7 12 0 25 6 11 6 21 1 25 -6 3
-6 17 -1 34 4 15 4 34 0 42 -5 7 -6 18 -2 23 10 16 8 60 -3 69 -7 4 -7 10 0
15 12 8 12 43 0 62 -5 8 -4 11 2 7 12 -7 11 42 -1 61 -4 7 -3 12 2 12 13 0 10
33 -3 42 -6 5 -5 8 4 8 10 0 11 3 2 13 -6 8 -8 17 -4 21 10 10 10 396 0 396
-4 0 -5 6 0 13 11 18 10 107 -2 107 -5 0 -4 4 4 9 8 5 9 11 3 15 -5 3 -8 18
-5 33 9 70 9 183 -1 183 -7 0 -8 3 -1 8 14 10 17 32 4 32 -8 0 -8 4 -2 13 8
10 11 174 3 202 -1 6 -1 12 0 15 9 18 5 347 -4 359 -9 12 -8 13 4 6 13 -8 13
-7 1 8 -7 9 -9 17 -4 17 7 0 10 58 3 85 -1 6 -1 15 0 20 7 28 4 81 -5 87 -6 5
-6 8 1 8 11 0 12 35 1 46 -3 4 -2 15 4 25 7 13 6 19 -1 19 -7 0 -8 7 -2 18 4
9 6 44 4 77 -4 81 -4 97 1 120 2 11 0 26 -6 33 -6 8 -6 12 2 12 7 0 9 5 5 12
-10 16 -13 48 -4 48 8 0 6 37 -3 46 -3 4 -2 15 4 25 7 13 6 19 -1 19 -7 0 -8
5 -3 13 4 6 8 28 9 47 1 19 3 35 4 35 1 0 3 8 6 18 2 9 6 25 8 35 3 9 5 17 6
17 2 0 11 38 12 53 1 6 5 12 10 12 4 0 8 5 8 11 0 20 62 105 91 125 16 10 29
25 29 32 0 6 3 11 8 11 19 -3 33 2 27 11 -3 6 1 7 9 4 9 -3 16 -1 16 6 0 6 4
8 10 5 5 -3 10 -1 10 5 0 6 5 8 10 5 6 -3 10 -1 10 5 0 6 5 8 10 5 6 -3 10 -2
10 3 0 4 16 14 35 22 19 8 35 17 35 22 0 4 3 7 8 6 9 -2 65 21 72 30 3 4 28
18 55 32 28 14 52 28 53 33 2 4 12 7 23 7 10 0 19 5 19 10 0 6 9 10 20 10 11
0 20 5 20 10 0 6 7 10 15 10 8 0 15 4 15 8 0 5 18 15 40 22 22 7 40 16 40 21
0 4 10 9 23 13 12 3 48 21 80 40 31 19 57 32 57 30 0 -3 12 4 26 15 15 12 31
21 36 21 4 0 27 12 51 27 23 15 45 27 49 28 4 0 16 7 26 15 10 8 25 16 33 18
7 2 17 8 20 14 4 6 12 7 18 4 6 -4 11 -3 11 1 0 5 15 16 33 24 64 29 162 84
169 94 4 5 8 7 8 3 0 -4 27 8 59 27 33 19 64 35 70 35 6 0 11 5 11 11 0 5 5 7
10 4 6 -3 10 -2 10 3 0 6 12 13 27 17 15 3 33 14 40 23 8 11 12 13 13 4 0 -13
4 -11 44 25 8 7 16 9 20 6 3 -4 6 -1 6 6 0 7 4 10 9 6 5 -3 15 0 23 7 12 12
50 33 163 91 22 11 48 27 58 35 9 8 17 12 17 8 0 -3 11 1 25 10 14 9 25 12 25
8 0 -5 4 -4 8 2 4 6 36 26 72 45 36 19 67 37 68 42 2 4 8 5 13 1 5 -3 12 2 15
10 3 9 10 14 14 11 5 -3 14 0 22 7 7 7 22 15 33 16 11 2 22 8 25 12 3 5 12 10
19 12 8 2 23 9 32 17 10 8 25 16 34 17 9 1 25 10 34 18 10 9 21 13 24 9 4 -3
7 -1 7 6 0 7 4 10 9 7 5 -3 14 1 21 9 7 8 16 13 20 10 5 -3 12 -1 15 5 4 6 28
20 53 32 26 12 59 30 75 40 15 11 27 17 27 13 0 -6 61 25 70 36 6 7 62 23 73
21 4 -1 7 3 7 9 0 6 7 9 15 5 8 -3 15 -1 15 4 0 6 3 9 8 8 4 -1 34 7 67 17 33
11 63 20 68 21 4 1 8 3 10 4 1 1 14 3 29 4 14 0 29 4 32 7 5 5 211 4 211 -1z"/>
<path d="M3897 6634 c-1 -1 -56 -4 -122 -8 -66 -3 -132 -8 -148 -11 -15 -3
-44 -7 -65 -10 -68 -8 -253 -49 -322 -72 -25 -8 -52 -16 -60 -18 -29 -7 -145
-57 -224 -98 -45 -22 -83 -41 -86 -42 -3 0 -21 -10 -41 -23 -20 -12 -39 -22
-42 -22 -6 0 -69 -40 -92 -58 -5 -4 -35 -25 -65 -47 -30 -22 -60 -44 -66 -50
-6 -5 -30 -25 -55 -44 -68 -53 -92 -95 -92 -166 -1 -62 3 -86 15 -95 3 -3 8
-12 10 -20 2 -8 13 -25 26 -37 12 -12 22 -26 22 -30 1 -14 84 -70 121 -82 59
-19 91 -9 204 62 19 12 31 21 59 45 8 6 17 12 20 12 3 0 24 13 48 29 133 89
327 180 398 186 9 0 20 4 25 7 6 3 26 9 45 12 19 3 45 8 58 10 13 3 45 6 70 7
55 3 92 14 92 29 0 11 95 130 114 142 6 4 8 8 4 8 -7 0 37 53 85 103 15 16 27
31 27 34 0 9 107 113 116 113 5 0 27 -25 49 -56 49 -69 99 -132 143 -179 6 -7
12 -18 12 -24 0 -6 7 -11 15 -11 8 0 15 -7 15 -16 0 -8 5 -12 10 -9 6 3 10 2
10 -3 0 -5 18 -30 40 -55 22 -25 40 -50 40 -56 0 -6 3 -11 8 -11 124 -8 169
-14 299 -43 7 -2 16 -6 19 -10 4 -4 16 -7 26 -7 10 0 26 -4 36 -9 23 -13 131
-60 140 -61 4 -1 15 -9 25 -17 9 -9 26 -21 36 -27 32 -19 73 -48 173 -123 54
-40 109 -78 122 -83 29 -11 112 8 140 31 122 101 183 235 139 305 -7 11 -11
23 -8 26 6 6 -63 68 -145 133 -25 19 -49 39 -55 43 -35 28 -105 72 -113 72 -6
0 -12 4 -14 8 -1 5 -30 23 -63 42 -33 19 -66 40 -73 47 -7 7 -17 13 -22 13 -4
0 -34 12 -66 27 -33 15 -61 28 -64 29 -3 0 -22 8 -42 17 -21 10 -45 18 -55 20
-10 1 -22 5 -28 9 -14 8 -132 39 -175 45 -19 3 -43 10 -53 15 -10 5 -21 8 -23
5 -3 -3 -22 -1 -42 4 -20 5 -55 12 -77 14 -22 3 -50 8 -61 10 -38 8 -390 25
-397 19z"/>
<path d="M3940 6358 c0 -7 -12 -26 -28 -43 -15 -16 -39 -46 -53 -65 -15 -19
-36 -45 -48 -57 -12 -12 -21 -26 -21 -32 0 -5 -4 -11 -8 -13 -5 -1 -33 -34
-63 -73 -30 -38 -66 -83 -82 -99 l-27 -29 27 -36 c34 -47 96 -125 103 -131 3
-3 24 -27 45 -55 44 -55 53 -65 108 -123 20 -23 37 -46 37 -51 0 -25 30 -8 66
37 21 26 43 50 49 54 5 4 7 8 3 8 -4 0 7 15 25 34 17 18 46 50 62 71 17 20 50
59 75 85 25 26 46 54 48 61 2 7 12 19 23 27 29 20 31 14 -53 121 -24 29 -47
60 -53 68 -5 8 -25 31 -44 51 -18 21 -58 69 -89 107 -69 86 -78 95 -91 95 -6
0 -11 -6 -11 -12z"/>
<path d="M3857 5274 c-1 -1 -42 -5 -92 -8 -96 -7 -150 -16 -290 -50 -66 -16
-141 -41 -146 -49 -3 -5 -9 -8 -13 -7 -5 2 -25 -3 -56 -14 -3 -1 -20 -10 -37
-19 -18 -10 -36 -18 -40 -18 -10 -1 -131 -56 -158 -71 -11 -7 -38 -20 -60 -31
-49 -23 -229 -143 -246 -163 -6 -8 -15 -14 -20 -14 -4 0 -19 -10 -31 -22 -44
-42 -119 -108 -124 -108 -11 0 -144 -142 -174 -185 -27 -39 -33 -58 -34 -104
-1 -69 20 -116 82 -177 103 -103 204 -107 307 -11 11 10 40 35 64 55 24 20 52
47 64 60 11 12 27 22 35 22 9 0 13 3 9 6 -9 9 202 174 223 174 5 0 10 4 10 8
0 4 28 23 63 41 34 18 69 36 77 42 8 5 42 20 75 34 33 15 69 30 80 35 23 11
76 32 90 36 26 7 154 36 227 50 50 10 338 11 344 2 3 -5 10 -6 15 -2 5 3 33 1
62 -5 28 -6 63 -13 77 -15 60 -11 142 -33 175 -46 11 -4 47 -18 80 -31 69 -26
208 -99 213 -111 2 -4 8 -8 13 -8 14 0 142 -84 158 -104 7 -9 17 -16 22 -16 4
0 19 -10 32 -22 13 -13 50 -45 81 -73 32 -27 70 -61 85 -73 173 -153 202 -160
331 -73 62 42 112 146 105 215 -7 57 -65 137 -189 255 -106 101 -106 101 -110
101 -3 0 -18 12 -33 26 -26 24 -97 79 -167 129 -16 11 -34 25 -40 30 -20 17
-50 35 -68 41 -10 4 -18 11 -18 16 0 5 -4 7 -9 3 -5 -3 -12 -1 -15 3 -7 11
-150 82 -165 82 -6 0 -11 5 -11 10 0 6 -10 10 -23 10 -13 0 -27 4 -33 8 -8 8
-167 60 -203 67 -9 2 -17 4 -18 5 -2 2 -6 3 -10 4 -26 6 -91 19 -108 22 -11 2
-33 6 -50 9 -16 4 -46 8 -65 10 -139 14 -175 17 -253 19 -48 1 -89 1 -90 0z"/>
<path d="M3897 4274 c-1 -1 -34 -5 -73 -8 -206 -19 -417 -124 -594 -296 -45
-44 -84 -80 -87 -80 -4 0 -104 -83 -140 -117 -11 -10 -16 -46 -22 -167 -1 -11
-4 -17 -7 -13 -4 3 -12 1 -20 -6 -34 -30 -44 -37 -44 -30 0 4 -4 3 -8 -3 -7
-11 -85 -57 -152 -91 -19 -10 -37 -21 -40 -24 -3 -3 -38 -25 -78 -49 -40 -23
-75 -47 -78 -51 -3 -5 -10 -7 -15 -4 -5 4 -9 1 -9 -4 0 -6 -7 -11 -15 -11 -8
0 -15 -4 -15 -10 0 -5 -6 -10 -13 -10 -7 0 -24 -10 -37 -22 -14 -13 -26 -22
-27 -20 -2 1 -14 -5 -27 -13 -45 -30 -49 -59 -50 -354 0 -315 1 -322 73 -367
25 -15 48 -31 51 -34 3 -4 26 -17 53 -29 26 -13 47 -27 47 -32 0 -6 4 -8 9 -4
5 3 16 -2 25 -10 8 -9 17 -14 18 -13 2 2 28 -13 58 -32 30 -19 57 -34 60 -35
3 0 17 -8 33 -18 64 -40 74 -43 139 -43 38 1 68 -3 68 -7 0 -5 5 -5 11 -2 5 4
58 8 117 8 l107 2 0 53 c0 28 2 52 5 52 4 0 4 157 -1 170 -1 3 -1 9 1 15 5 30
4 95 -3 95 -4 0 -4 8 1 18 4 9 7 57 6 106 -2 130 -2 130 59 90 29 -18 57 -37
62 -41 6 -4 28 -17 50 -28 22 -11 54 -29 70 -41 17 -12 37 -24 45 -28 8 -3 29
-15 45 -26 17 -11 44 -27 60 -36 17 -9 32 -20 35 -24 3 -4 24 -18 48 -31 76
-42 82 -45 102 -64 11 -10 20 -14 20 -9 1 14 24 -29 25 -46 0 -8 -3 -23 -8
-32 -4 -10 -4 -18 1 -18 4 0 8 -9 8 -20 0 -11 -4 -20 -9 -20 -6 0 -6 -5 0 -13
5 -6 8 -22 6 -34 -2 -13 -4 -33 -6 -45 -2 -13 1 -29 6 -35 6 -8 6 -13 0 -13
-11 0 -11 -29 1 -48 4 -6 3 -12 -2 -12 -9 0 -8 -42 1 -57 3 -5 2 -15 -3 -23
-5 -9 -5 -19 2 -27 7 -9 7 -13 -1 -13 -7 0 -8 -8 -2 -23 6 -16 4 -26 -7 -37
-9 -8 -19 -14 -22 -14 -12 4 -80 -29 -80 -38 0 -5 -4 -7 -8 -4 -4 2 -32 -22
-62 -53 -63 -67 -83 -91 -75 -91 3 0 -2 -15 -12 -32 -9 -18 -19 -40 -22 -48
-8 -28 -8 -210 1 -210 4 0 7 -3 7 -7 -1 -5 0 -11 1 -15 1 -5 3 -11 4 -15 11
-60 134 -213 170 -213 9 0 16 -4 16 -9 0 -5 12 -12 28 -17 15 -4 29 -8 32 -9
87 -28 215 -21 302 17 52 22 120 82 158 138 13 19 27 37 31 40 6 5 27 63 37
100 10 39 9 136 -2 183 -26 112 -109 214 -224 275 l-57 31 0 260 c1 143 3 262
5 263 20 14 113 68 117 68 3 0 29 15 57 33 28 19 66 40 84 48 17 8 32 17 32
21 0 5 6 8 13 8 7 0 19 6 26 13 6 6 15 12 19 12 4 0 44 21 89 48 45 26 87 47
93 47 5 0 10 5 10 11 0 5 4 8 9 4 5 -3 12 -1 16 5 3 5 12 10 19 10 10 0 12
-68 12 -309 l-1 -309 185 0 c167 0 213 6 230 27 3 4 24 15 48 25 23 11 42 23
42 28 0 4 3 7 8 6 9 -3 52 21 70 39 7 7 20 13 28 13 8 0 14 5 14 12 0 6 3 9 6
5 4 -3 23 5 43 18 19 14 40 25 46 25 14 0 48 25 98 72 38 36 40 41 41 100 1
35 5 68 8 74 4 6 5 14 1 18 -3 3 -7 113 -8 245 -1 199 -4 241 -17 254 -19 19
-145 97 -157 97 -5 0 -11 4 -13 8 -4 11 -101 67 -110 64 -5 -1 -8 2 -8 7 0 5
-14 14 -31 21 -17 7 -36 18 -43 24 -17 16 -68 46 -88 53 -10 3 -18 9 -18 14 0
5 -9 9 -20 9 -11 0 -20 4 -20 8 0 5 -12 15 -27 23 -27 13 -62 46 -64 58 0 3
-1 37 -3 74 -1 66 -3 70 -41 105 -22 21 -60 53 -84 72 -69 56 -122 102 -162
143 -21 20 -40 37 -43 37 -5 0 -23 14 -60 45 -38 33 -226 125 -254 125 -10 0
-23 5 -30 12 -7 7 -12 9 -12 5 0 -4 -10 -3 -21 4 -12 6 -36 13 -53 14 -17 2
-47 6 -66 9 -33 6 -168 14 -173 10z m356 -593 c39 -26 79 -54 87 -62 25 -23
79 -51 89 -44 5 3 12 1 15 -4 3 -4 32 -7 63 -6 57 1 94 14 121 42 7 7 17 13
21 13 5 0 8 -94 7 -208 -1 -160 -4 -213 -15 -225 -7 -9 -17 -14 -22 -11 -5 3
-9 1 -9 -3 0 -5 -17 -17 -37 -28 -21 -11 -66 -37 -101 -57 -34 -21 -64 -38
-66 -38 -3 0 -44 -23 -93 -52 -209 -122 -314 -176 -218 -111 57 37 73 56 103
121 44 95 46 139 8 215 -24 49 -43 71 -128 142 -23 20 -23 22 -22 205 1 102 2
188 3 192 2 15 126 -37 194 -81z m-407 59 c0 -8 -4 -23 -8 -32 -5 -10 -5 -18
0 -18 10 0 8 -42 -3 -59 -3 -6 -1 -11 5 -11 7 0 8 -6 1 -18 -7 -13 -6 -23 1
-30 7 -7 8 -12 2 -12 -11 0 -12 -60 0 -78 4 -7 3 -12 -1 -12 -5 0 -9 -9 -9
-20 0 -11 4 -20 8 -20 5 0 5 -8 0 -17 -5 -10 -8 -23 -5 -29 2 -6 -3 -17 -12
-24 -8 -7 -15 -10 -15 -6 0 6 -22 -11 -64 -49 -29 -27 -67 -90 -59 -98 3 -4 1
-7 -5 -7 -6 0 -9 -9 -7 -20 2 -11 0 -22 -5 -25 -5 -3 -6 -20 -4 -38 5 -37 12
-71 14 -74 2 -2 3 -6 4 -10 13 -48 61 -108 128 -157 40 -30 43 -55 5 -33 -12
6 -24 15 -27 18 -3 4 -23 16 -45 28 -22 12 -58 33 -80 46 -22 14 -55 33 -72
42 -18 9 -33 21 -33 25 0 5 -4 7 -8 4 -5 -3 -18 3 -29 14 -12 10 -24 16 -27
13 -3 -4 -6 -2 -6 4 0 6 -10 13 -23 17 -12 3 -32 15 -45 26 -12 11 -22 18 -22
15 0 -2 -29 13 -65 35 -36 22 -68 40 -71 40 -2 0 -13 8 -24 18 -16 15 -19 32
-19 127 -1 174 -2 208 -7 217 -3 4 0 8 6 8 7 0 8 6 0 19 -7 14 -7 22 0 26 6 4
8 11 5 16 -14 21 8 30 29 12 38 -34 77 -47 134 -47 68 0 92 5 110 22 7 6 20
12 28 12 8 0 12 5 9 10 -3 6 -1 10 5 10 6 0 44 22 85 50 41 27 75 46 75 43 0
-3 7 1 16 8 46 38 128 50 130 19z m1114 -493 c66 -36 185 -112 188 -119 2 -5
7 -6 12 -3 5 3 14 -1 22 -8 17 -16 72 -51 78 -49 9 2 18 -35 16 -66 -1 -18 0
-32 3 -32 3 0 6 -11 6 -25 0 -14 -4 -25 -9 -25 -5 0 -4 -6 1 -12 10 -14 10
-119 0 -159 -6 -24 -73 -79 -96 -79 -5 0 -14 -7 -21 -15 -7 -8 -16 -13 -20
-10 -5 3 -10 1 -12 -3 -1 -5 -56 -36 -120 -70 l-118 -63 -1 68 c0 60 0 603 1
675 0 30 7 30 70 -5z m-1980 -3 c7 -16 7 -32 0 -43 -5 -10 -7 -21 -3 -25 9 -9
9 -286 0 -286 -4 0 -3 -8 2 -18 7 -13 6 -23 -1 -30 -8 -8 -8 -12 -2 -12 6 0
11 -7 11 -15 0 -8 -5 -15 -11 -15 -7 0 -8 -3 -1 -8 12 -8 14 -122 2 -122 -4 0
-4 -7 1 -17 6 -9 6 -29 2 -45 -5 -15 -5 -30 -1 -32 4 -3 6 -18 3 -35 l-4 -29
-62 31 c-33 18 -63 35 -66 38 -3 3 -30 19 -60 36 -127 69 -189 107 -184 114 2
4 0 10 -5 13 -9 6 -7 43 4 73 2 6 1 14 -3 17 -10 11 -9 46 2 46 6 0 5 5 -2 12
-8 8 -9 15 -1 25 7 7 8 13 3 13 -8 0 -9 35 -5 113 1 10 9 17 20 17 10 0 24 6
30 14 16 19 232 152 243 149 4 -2 8 2 8 8 0 5 5 7 10 4 6 -3 10 -2 10 2 0 7
18 18 48 32 1 0 7 -11 12 -25z"/>
</g>
</svg>
