<?xml version="1.0" standalone="no"?>
<!DOCTYPE svg PUBLIC "-//W3C//DTD SVG 20010904//EN"
 "http://www.w3.org/TR/2001/REC-SVG-20010904/DTD/svg10.dtd">
<svg version="1.0" xmlns="http://www.w3.org/2000/svg"
 width="1157.000000pt" height="1157.000000pt" viewBox="0 0 1157.000000 1157.000000"
 preserveAspectRatio="xMidYMid meet">
<metadata>
Created by potrace 1.14, written by Peter Selinger 2001-2017
</metadata>
<g transform="translate(0.000000,1157.000000) scale(0.100000,-0.100000)"
fill="#000000" stroke="none">
<path d="M5510 11558 c0 -4 -10 -5 -21 -3 -12 3 -27 1 -32 -2 -6 -4 -25 -8
-42 -10 -16 -1 -41 -6 -55 -10 -14 -3 -31 -5 -37 -4 -7 1 -13 -3 -13 -10 0 -8
-4 -8 -15 1 -12 10 -15 10 -15 0 0 -7 -7 -10 -15 -6 -8 3 -19 -2 -24 -12 -8
-14 -10 -14 -11 -2 0 9 -3 11 -8 5 -7 -10 -27 -15 -73 -18 -17 -1 -25 -7 -22
-14 3 -7 0 -13 -6 -13 -6 0 -11 5 -11 12 0 6 -9 3 -20 -7 -11 -10 -20 -15 -20
-12 0 4 -20 -2 -44 -13 -24 -10 -47 -16 -50 -13 -3 4 -6 1 -6 -6 0 -8 -7 -11
-15 -7 -8 3 -15 1 -15 -5 0 -6 -4 -7 -10 -4 -5 3 -10 1 -10 -4 0 -6 -3 -10 -7
-9 -16 3 -93 -34 -87 -43 3 -5 -1 -6 -9 -3 -7 2 -33 -6 -57 -20 -24 -14 -47
-23 -52 -20 -4 3 -8 0 -8 -6 0 -6 -4 -9 -9 -6 -5 4 -11 2 -13 -3 -1 -5 -10
-11 -18 -13 -8 -2 -18 -7 -21 -11 -5 -7 -26 -14 -51 -16 -5 -1 -8 -9 -8 -18 0
-15 -2 -16 -10 -3 -7 11 -10 11 -10 2 0 -7 -4 -10 -10 -7 -5 3 -10 1 -10 -5 0
-6 -4 -8 -10 -5 -5 3 -10 1 -10 -5 0 -7 -7 -10 -15 -6 -8 3 -14 0 -12 -6 1 -7
-3 -12 -10 -13 -7 0 -21 -8 -32 -17 -11 -9 -22 -14 -25 -11 -3 4 -14 -1 -24
-10 -10 -10 -22 -14 -25 -10 -4 3 -7 1 -7 -6 0 -8 -6 -11 -16 -7 -8 3 -12 2
-9 -3 3 -5 -5 -13 -17 -17 -13 -4 -26 -11 -29 -16 -3 -5 -14 -10 -23 -12 -10
-1 -21 -8 -26 -16 -5 -8 -15 -10 -26 -6 -10 4 -15 4 -11 0 4 -4 -12 -16 -35
-27 -24 -11 -51 -26 -60 -34 -9 -8 -22 -12 -27 -8 -6 3 -14 -1 -17 -9 -3 -9
-12 -16 -20 -16 -8 0 -14 -4 -14 -10 0 -5 -8 -7 -17 -3 -10 3 -15 3 -11 -2 9
-10 -62 -46 -75 -38 -6 3 -7 1 -4 -4 4 -6 -4 -14 -18 -17 -14 -4 -25 -11 -25
-17 0 -6 -4 -7 -10 -4 -5 3 -10 1 -10 -5 0 -6 -5 -8 -10 -5 -6 3 -13 -1 -16
-9 -3 -9 -10 -13 -15 -10 -5 3 -23 -4 -39 -16 -17 -12 -30 -18 -30 -13 0 4 -5
0 -11 -10 -6 -9 -14 -15 -20 -12 -5 4 -9 2 -9 -2 0 -5 -19 -17 -42 -27 -24
-10 -49 -26 -55 -34 -9 -11 -13 -12 -13 -3 0 7 -5 9 -10 6 -6 -4 -8 -10 -5
-15 3 -4 -3 -7 -12 -6 -10 2 -29 -5 -42 -15 -13 -10 -27 -16 -31 -14 -5 3 -11
1 -15 -5 -4 -6 -11 -7 -17 -4 -6 4 -8 2 -4 -4 4 -6 -8 -16 -29 -23 -19 -7 -35
-17 -35 -22 0 -5 -7 -7 -15 -3 -9 3 -15 0 -15 -9 0 -8 -3 -15 -7 -14 -16 2
-53 -14 -53 -23 0 -6 -7 -8 -15 -4 -8 3 -14 0 -12 -7 1 -7 -4 -11 -10 -9 -7 1
-13 -3 -13 -9 0 -5 -4 -7 -10 -4 -5 3 -10 1 -10 -5 0 -6 -4 -8 -10 -5 -5 3
-10 1 -10 -4 0 -6 -3 -10 -7 -9 -13 2 -47 -15 -61 -31 -8 -9 -11 -10 -7 -3 3
6 1 12 -4 12 -6 0 -11 -4 -11 -10 0 -5 -20 -19 -45 -30 -25 -11 -45 -25 -45
-31 0 -6 -4 -8 -9 -4 -5 3 -12 1 -16 -5 -4 -6 -11 -8 -16 -5 -5 4 -9 1 -9 -4
0 -6 -9 -11 -20 -11 -11 0 -20 -5 -20 -11 0 -5 -4 -8 -9 -5 -5 4 -11 1 -13 -4
-2 -6 -12 -12 -21 -14 -10 -1 -22 -8 -26 -15 -5 -7 -11 -12 -15 -12 -20 3 -26
0 -20 -11 5 -7 3 -8 -6 -3 -8 5 -18 2 -26 -9 -7 -10 -15 -17 -18 -18 -21 0
-45 -12 -40 -19 3 -5 -4 -9 -15 -9 -11 0 -26 -7 -34 -15 -8 -7 -26 -17 -40
-20 -14 -4 -28 -13 -31 -22 -3 -8 -10 -11 -16 -8 -6 3 -23 -3 -39 -14 -16 -12
-35 -21 -42 -21 -7 0 -24 -10 -37 -22 -14 -13 -21 -16 -17 -9 5 9 -4 6 -22 -7
-17 -12 -33 -19 -37 -15 -3 3 -6 1 -6 -5 0 -7 -6 -12 -14 -12 -8 0 -16 -6 -19
-14 -3 -9 -16 -13 -31 -12 -14 2 -26 0 -26 -3 0 -4 -18 -15 -40 -25 -22 -10
-40 -21 -40 -26 0 -7 -21 -16 -57 -25 -7 -2 -20 -10 -29 -19 -8 -9 -24 -16
-35 -16 -11 0 -18 -4 -15 -9 3 -5 -1 -12 -10 -15 -10 -4 -13 -2 -8 7 4 6 -5 1
-21 -13 -16 -14 -25 -18 -21 -10 7 13 6 13 -6 0 -7 -8 -20 -16 -28 -18 -8 -2
-18 -8 -21 -14 -3 -5 -10 -10 -15 -11 -5 -1 -8 -5 -7 -9 2 -4 -4 -5 -12 -2 -8
4 -15 2 -15 -4 0 -9 -37 -25 -52 -23 -5 1 -8 -4 -8 -10 0 -6 -7 -8 -16 -5 -8
3 -13 2 -10 -2 3 -5 -29 -24 -69 -43 -41 -19 -75 -37 -75 -41 0 -5 -9 -8 -19
-8 -10 0 -22 -7 -25 -16 -3 -8 -10 -13 -15 -9 -5 3 -12 1 -16 -5 -4 -6 -11 -7
-17 -4 -7 4 -8 2 -4 -4 4 -7 2 -13 -3 -13 -6 -1 -14 -2 -18 -3 -5 0 -23 -12
-41 -25 -18 -13 -36 -21 -39 -18 -3 3 -14 -3 -26 -14 -11 -10 -27 -19 -34 -19
-7 0 -13 -5 -13 -12 0 -6 -3 -8 -6 -5 -4 4 -20 -3 -37 -15 -18 -13 -27 -16
-22 -7 5 7 -2 5 -14 -5 -12 -11 -29 -21 -37 -22 -9 -1 -22 -11 -31 -21 -8 -10
-12 -12 -8 -5 10 19 -6 14 -26 -10 -11 -11 -19 -18 -19 -14 0 5 -23 -9 -51
-29 -28 -20 -48 -31 -43 -23 4 7 -2 5 -13 -4 -11 -10 -23 -18 -27 -18 -4 0
-14 -7 -23 -15 -8 -8 -19 -13 -24 -10 -5 4 -9 1 -9 -5 0 -6 -4 -8 -10 -5 -5 3
-10 2 -10 -4 0 -6 -11 -13 -25 -17 -14 -3 -25 -9 -25 -13 0 -4 -16 -15 -36
-24 -19 -10 -32 -22 -29 -27 5 -9 -16 -15 -38 -11 -5 1 -6 -3 -2 -9 5 -9 -7
-14 -27 -11 -4 0 -5 -6 -2 -13 4 -10 -5 -16 -27 -21 -23 -5 -28 -10 -18 -16
11 -7 10 -9 -3 -9 -10 0 -18 -5 -18 -11 0 -5 -5 -7 -10 -4 -6 3 -10 -1 -10
-10 0 -8 -7 -18 -15 -21 -8 -4 -15 -13 -15 -21 0 -8 -3 -12 -7 -10 -5 2 -18
-7 -30 -20 -12 -13 -19 -23 -16 -23 3 0 -7 -11 -23 -25 -16 -14 -25 -25 -21
-25 4 0 -3 -11 -15 -24 -13 -13 -26 -21 -31 -19 -4 2 -7 1 -6 -4 4 -21 -3 -32
-21 -38 -11 -4 -18 -11 -14 -16 3 -6 -4 -19 -17 -30 -12 -10 -19 -19 -15 -19
4 0 0 -7 -9 -16 -9 -9 -14 -22 -11 -29 3 -8 -2 -16 -10 -19 -8 -3 -14 -12 -14
-21 0 -8 -5 -15 -12 -15 -6 0 -8 -3 -5 -6 3 -4 1 -16 -5 -28 -7 -11 -11 -29
-9 -38 1 -10 -2 -18 -7 -18 -5 0 -9 -6 -10 -12 -6 -50 -10 -61 -23 -69 -12 -8
-12 -10 1 -19 8 -5 10 -10 4 -10 -6 0 -11 -7 -12 -15 -1 -8 -3 -22 -4 -30 -1
-8 -6 -15 -12 -15 -6 0 -4 -5 4 -10 12 -8 12 -10 1 -10 -8 0 -11 -3 -8 -6 3
-4 2 -15 -3 -25 -7 -12 -7 -20 0 -24 6 -4 7 -12 3 -18 -4 -7 -8 -15 -9 -19 -1
-5 -2 -9 -4 -10 -2 -3 -8 -70 -12 -138 -2 -25 -7 -51 -12 -59 -7 -11 -6 -12 5
-6 12 8 12 6 0 -8 -10 -13 -10 -17 -1 -17 9 0 10 -3 1 -13 -8 -10 -7 -17 1
-25 7 -7 8 -12 2 -12 -6 0 -10 -21 -9 -47 0 -27 -4 -54 -9 -62 -8 -11 -8 -13
2 -7 8 5 12 0 12 -14 0 -14 -4 -19 -12 -14 -10 6 -10 4 -3 -7 13 -16 13 -99 0
-119 -5 -9 -4 -11 3 -6 8 5 12 -1 12 -14 0 -13 -4 -19 -12 -14 -7 5 -8 3 -2
-7 9 -15 9 -453 -1 -469 -3 -5 -3 -10 2 -10 9 0 8 -82 -1 -105 -3 -8 0 -15 7
-15 8 0 6 -4 -3 -10 -8 -5 -10 -10 -3 -10 9 0 11 -17 3 -40 -5 -15 -4 -58 2
-77 5 -16 3 -23 -5 -23 -8 0 -8 -3 2 -9 10 -7 10 -10 1 -13 -10 -3 -10 -9 -2
-25 6 -11 8 -23 5 -27 -8 -8 -5 -165 3 -178 3 -4 1 -8 -4 -8 -4 0 -6 -22 -2
-50 4 -27 4 -50 0 -50 -3 0 -3 -27 0 -60 3 -33 3 -60 0 -60 -7 0 -3 -217 5
-230 3 -5 2 -10 -3 -10 -4 0 -6 -22 -2 -50 4 -27 4 -50 1 -50 -8 0 -4 -116 4
-129 3 -6 1 -11 -5 -11 -8 0 -8 -6 0 -20 6 -11 7 -20 3 -20 -4 0 -6 -49 -3
-110 3 -61 2 -110 -2 -110 -4 0 -3 -12 1 -28 5 -15 4 -37 0 -50 -6 -15 -5 -22
4 -22 8 0 6 -4 -3 -10 -13 -9 -13 -10 0 -10 13 0 13 -1 0 -10 -13 -9 -13 -10
0 -10 9 0 11 -3 5 -8 -5 -4 -10 -20 -10 -37 0 -16 5 -33 10 -37 6 -5 5 -8 -2
-8 -9 0 -10 -7 -3 -25 5 -14 6 -25 2 -25 -4 0 -7 -40 -7 -90 0 -49 4 -90 8
-90 5 0 5 -5 1 -12 -11 -18 -10 -68 1 -68 6 0 3 -5 -5 -10 -11 -7 -11 -10 -2
-10 7 0 10 -5 6 -12 -9 -14 -9 -103 1 -117 3 -6 0 -11 -7 -11 -10 0 -10 -2 1
-9 10 -7 10 -10 1 -13 -10 -3 -10 -9 -1 -25 6 -12 7 -24 2 -27 -9 -6 -7 -48 3
-65 4 -5 2 -12 -2 -15 -8 -5 -9 -29 -2 -61 1 -5 2 -14 0 -20 -5 -27 0 -586 5
-595 3 -5 2 -10 -3 -10 -5 0 -6 -17 -2 -40 5 -25 4 -40 -3 -40 -5 0 -4 -7 3
-15 9 -11 9 -15 1 -15 -7 0 -9 -5 -5 -12 11 -17 11 -58 1 -58 -4 0 -3 -9 3
-19 7 -13 7 -20 -1 -23 -7 -2 -7 -12 0 -31 8 -19 7 -27 0 -27 -8 0 -8 -4 0
-13 6 -8 8 -17 4 -20 -11 -11 -9 -167 2 -167 6 0 3 -5 -5 -10 -8 -5 -10 -10
-5 -10 6 0 11 -9 11 -20 0 -11 -4 -20 -9 -20 -4 0 -5 -5 -1 -12 4 -7 7 -30 7
-52 -1 -23 4 -47 11 -55 8 -12 8 -13 -2 -7 -16 10 -13 -25 3 -36 6 -5 5 -8 -4
-8 -9 0 -10 -4 -4 -13 6 -6 9 -20 8 -29 -2 -10 1 -20 5 -23 5 -3 5 -19 0 -35
-5 -17 -5 -30 -1 -30 4 0 7 -13 6 -30 -1 -16 1 -30 5 -30 4 0 5 -16 3 -36 -2
-23 0 -33 7 -29 13 8 9 -17 -5 -27 -6 -5 -6 -8 2 -8 6 0 10 -8 9 -17 -2 -10 1
-21 6 -24 5 -3 9 -22 10 -42 1 -20 5 -37 10 -37 5 0 6 -5 3 -10 -3 -6 -2 -10
4 -10 6 0 8 -7 5 -15 -4 -8 -1 -22 6 -30 6 -8 9 -19 5 -25 -3 -5 -1 -10 5 -10
6 0 8 -5 5 -10 -3 -6 -1 -10 5 -10 6 0 9 -4 5 -9 -3 -5 -1 -12 5 -16 6 -4 8
-11 5 -16 -4 -5 -2 -9 3 -9 8 0 15 -17 24 -57 1 -5 6 -13 12 -20 34 -39 37
-43 25 -43 -7 0 -2 -9 10 -19 16 -14 18 -21 9 -24 -8 -3 -5 -6 6 -6 11 -1 17
-4 13 -7 -3 -4 1 -13 9 -21 8 -8 11 -19 8 -25 -4 -7 -2 -8 4 -4 7 4 12 2 12
-3 0 -6 10 -22 23 -37 12 -14 22 -31 22 -37 1 -7 6 -11 12 -10 7 2 15 -6 18
-17 4 -11 11 -20 17 -20 6 0 9 -2 6 -5 -9 -10 144 -155 164 -155 5 0 6 -4 3
-10 -3 -5 1 -10 9 -10 9 0 16 -4 16 -10 0 -5 7 -10 16 -10 8 0 12 -4 9 -10 -3
-5 0 -10 8 -10 7 0 23 -9 35 -20 12 -11 26 -20 32 -20 5 0 10 -5 10 -11 0 -5
4 -7 10 -4 5 3 10 -2 10 -11 0 -10 3 -14 7 -11 7 7 93 -39 104 -55 3 -6 8 -9
10 -8 9 4 59 -24 59 -32 0 -5 5 -6 10 -3 5 3 10 1 10 -5 0 -7 5 -10 12 -8 6 2
20 -4 30 -14 10 -10 25 -18 34 -18 9 0 12 -5 8 -12 -5 -7 -3 -8 5 -4 7 5 20 2
29 -6 9 -8 38 -25 65 -38 26 -13 47 -26 47 -29 0 -4 9 -7 20 -8 11 -1 33 -11
49 -22 16 -12 37 -21 46 -21 9 0 14 -4 11 -8 -3 -5 11 -14 30 -21 18 -7 34
-17 34 -22 0 -5 9 -9 20 -9 11 0 20 -4 20 -8 0 -9 59 -36 78 -35 6 1 12 -6 12
-14 0 -8 5 -11 10 -8 6 3 22 -3 36 -14 15 -11 30 -19 34 -16 4 3 11 -2 14 -11
3 -8 10 -12 16 -9 6 3 13 -1 16 -9 3 -9 10 -14 14 -11 5 3 15 -2 24 -10 9 -9
25 -18 37 -20 12 -3 33 -15 47 -27 14 -13 22 -17 18 -11 -5 9 -2 11 8 7 9 -3
16 -10 16 -15 0 -5 7 -9 15 -9 8 0 15 -4 15 -10 0 -5 7 -7 15 -4 8 4 15 1 15
-6 0 -6 4 -9 9 -6 5 3 12 -1 15 -10 3 -8 11 -12 16 -9 6 4 19 -3 30 -15 10
-12 22 -21 27 -21 18 1 43 -11 43 -21 0 -6 3 -8 6 -5 4 4 19 -2 33 -12 26 -18
56 -31 67 -30 4 0 10 -3 13 -8 9 -14 140 -83 156 -83 8 0 15 -4 15 -8 0 -8 60
-36 73 -33 4 0 7 -3 7 -9 0 -5 9 -10 21 -10 12 0 18 -4 13 -11 -4 -7 -1 -10 7
-7 8 3 26 -3 40 -13 14 -10 29 -16 33 -12 3 3 6 1 6 -5 0 -7 9 -12 20 -12 11
0 23 -7 26 -15 4 -8 10 -13 14 -10 4 3 19 -4 32 -15 14 -11 28 -16 32 -13 3 3
6 1 6 -6 0 -7 6 -11 13 -8 6 2 18 -3 25 -12 11 -13 12 -13 7 -1 -4 8 3 4 15
-10 12 -14 18 -18 14 -10 -5 11 -2 10 13 -3 11 -9 23 -14 26 -10 4 3 7 1 7 -6
0 -7 4 -9 10 -6 5 3 10 1 10 -4 0 -6 10 -11 22 -11 12 0 18 -3 15 -6 -8 -8 55
-44 66 -37 4 2 7 -1 7 -6 0 -6 9 -11 19 -11 11 0 26 -9 34 -20 8 -11 16 -17
19 -14 3 3 22 -6 43 -20 21 -14 41 -23 46 -20 5 3 9 0 9 -6 0 -6 15 -18 33
-26 17 -8 39 -18 47 -23 8 -4 26 -14 39 -21 73 -38 117 -64 123 -74 4 -6 8 -7
8 -2 0 5 10 1 22 -10 13 -12 18 -13 13 -4 -6 11 -3 10 12 -3 11 -9 25 -17 31
-17 7 0 12 -4 12 -10 0 -5 7 -10 16 -10 9 0 23 -8 31 -17 8 -10 12 -13 9 -6
-5 8 0 8 19 0 14 -7 25 -18 25 -25 0 -7 5 -10 10 -7 5 3 10 2 10 -4 0 -5 10
-8 21 -6 12 3 19 2 16 -2 -9 -9 24 -32 46 -33 10 0 15 -4 12 -10 -3 -5 1 -10
9 -10 8 0 31 -9 50 -21 20 -12 36 -17 36 -12 0 4 5 0 11 -9 5 -10 17 -18 24
-18 8 0 15 -5 15 -11 0 -5 4 -8 9 -4 5 3 12 1 16 -5 4 -6 11 -8 16 -4 5 3 8 0
7 -8 -2 -7 3 -12 11 -10 7 1 22 -7 32 -19 10 -12 19 -19 19 -15 0 3 13 0 30
-9 16 -8 33 -15 36 -14 4 0 10 -5 15 -13 5 -7 12 -13 16 -14 12 -1 47 -17 53
-23 9 -10 64 -41 103 -57 20 -9 37 -20 37 -25 0 -5 6 -8 13 -7 6 2 11 -3 9
-11 -2 -9 3 -11 13 -7 9 3 23 -1 32 -9 8 -8 19 -13 24 -10 5 4 9 0 9 -7 0 -8
10 -15 22 -15 13 -1 28 -10 35 -19 7 -10 16 -15 19 -11 4 4 15 -3 25 -14 9
-11 20 -20 23 -20 24 3 36 0 32 -8 -5 -8 40 -26 57 -23 4 1 7 -5 7 -14 0 -10
6 -14 15 -10 8 3 15 1 15 -5 0 -6 4 -7 10 -4 6 3 10 2 10 -3 0 -10 47 -27 63
-23 5 1 6 -3 2 -8 -3 -6 6 -13 20 -17 14 -3 25 -10 25 -15 0 -5 6 -6 14 -3 7
3 20 -2 29 -10 9 -9 23 -16 32 -16 9 0 13 -4 10 -10 -3 -6 1 -7 9 -4 9 3 16 1
16 -5 0 -6 7 -8 15 -5 8 4 15 1 15 -6 0 -6 5 -8 10 -5 6 3 13 -1 16 -9 3 -9
10 -13 15 -10 6 3 17 0 26 -8 14 -11 16 -11 8 2 -5 9 1 7 15 -5 15 -13 21 -15
16 -5 -5 9 -2 8 7 -2 8 -10 17 -15 20 -12 3 3 12 2 19 -2 7 -5 18 -9 23 -11 6
-1 21 -5 35 -8 14 -4 33 -8 43 -8 9 -1 17 -5 17 -10 0 -5 7 -7 15 -3 8 3 15 0
15 -7 0 -8 3 -8 9 2 6 10 10 10 16 1 4 -6 13 -9 21 -6 8 3 14 0 14 -7 0 -8 4
-6 10 3 5 8 10 10 10 3 0 -6 9 -9 20 -6 13 3 20 0 20 -8 0 -11 2 -11 10 1 8
12 10 12 10 1 0 -8 7 -11 20 -8 10 3 20 1 22 -5 2 -5 12 -9 23 -9 11 1 27 1
35 1 48 1 107 -6 119 -14 10 -6 12 -6 7 3 -9 14 30 11 53 -3 10 -6 12 -5 7 2
-5 8 1 12 14 12 13 0 19 -4 14 -12 -5 -7 -3 -8 7 -2 19 12 30 12 53 1 13 -6
16 -6 12 2 -8 12 28 10 40 -2 4 -4 13 -2 21 4 7 6 13 8 13 5 0 -4 9 -2 20 4
11 6 20 7 20 2 0 -5 7 -9 15 -9 8 0 12 4 10 8 -3 3 4 9 15 12 11 3 18 1 14 -4
-3 -5 0 -9 5 -9 6 0 11 5 11 11 0 5 5 7 10 4 6 -3 15 -3 22 1 6 4 25 8 42 10
17 1 47 5 66 9 19 4 41 7 48 7 6 1 12 5 12 10 0 5 4 7 9 4 8 -5 45 4 91 22 8
3 18 6 22 6 3 1 9 4 13 8 4 4 13 4 21 1 8 -3 14 0 14 6 0 6 9 11 19 11 11 0
26 6 33 13 7 7 20 12 28 12 8 -1 24 5 35 12 11 7 27 13 37 13 10 0 18 4 18 9
0 6 9 8 20 6 11 -2 18 0 15 6 -4 5 1 9 9 9 9 0 16 4 16 8 0 4 10 8 22 9 11 1
24 7 28 13 4 6 16 12 28 13 11 0 18 5 16 9 -3 4 2 8 10 8 8 0 22 7 30 16 11
11 16 12 16 3 0 -7 6 -5 13 6 8 10 19 15 25 11 7 -4 12 -3 12 2 0 10 60 38 73
34 4 -1 6 4 5 10 -2 7 3 12 10 10 6 -1 12 3 12 9 0 5 5 7 10 4 6 -3 10 -1 10
5 0 6 5 8 10 5 6 -3 10 -1 10 5 0 6 5 8 10 5 6 -3 13 1 16 9 3 9 10 13 15 10
5 -3 12 1 15 10 3 8 12 12 19 10 7 -3 23 5 35 18 13 13 20 17 15 10 -6 -11 -3
-11 16 0 13 7 26 15 29 18 3 3 26 16 52 29 26 14 44 29 41 34 -3 6 -2 7 4 4
12 -7 63 14 63 26 0 5 5 5 10 2 6 -3 10 -1 10 4 0 6 5 11 12 11 6 0 20 8 31
17 11 10 17 12 13 6 -4 -7 -2 -13 3 -13 6 0 11 4 11 9 0 10 56 44 103 62 15 6
27 15 27 21 0 5 5 6 10 3 6 -3 10 -1 10 4 0 6 8 11 18 11 10 0 28 9 40 20 12
12 22 18 22 14 0 -4 8 0 18 9 10 10 22 14 25 10 4 -3 7 0 7 7 0 7 3 11 6 8 5
-6 60 26 92 52 6 6 12 8 12 4 0 -4 8 0 18 9 10 10 22 14 25 10 4 -3 7 -1 7 6
0 7 4 10 8 7 5 -3 18 4 30 14 24 23 36 26 27 8 -4 -7 2 -4 12 7 10 11 25 21
33 23 8 2 16 7 18 12 2 4 12 6 23 3 15 -4 18 -2 12 12 -4 13 -3 16 5 11 7 -4
12 -2 12 4 0 6 5 8 10 5 6 -3 10 -1 10 5 0 6 5 8 11 5 5 -4 18 2 27 13 9 10
25 18 35 16 11 -1 16 0 13 3 -3 4 6 14 22 23 19 12 29 14 34 6 5 -7 8 -4 8 7
0 10 4 16 9 12 6 -3 14 2 19 11 5 9 11 14 13 12 7 -5 119 55 119 65 0 5 7 7
15 3 8 -3 15 -1 15 3 0 5 25 19 55 32 30 12 55 26 55 31 0 4 3 7 8 6 11 -2 43
13 73 33 14 10 29 16 33 12 3 -3 6 -1 6 5 0 7 7 12 15 12 8 0 15 5 15 11 0 5
4 8 9 4 6 -3 14 3 20 12 6 10 11 14 11 9 0 -4 11 -1 25 8 14 9 25 13 25 9 0
-3 12 4 27 18 14 13 22 17 18 10 -5 -9 5 -5 22 7 17 12 36 22 42 22 6 0 11 4
11 9 0 8 37 24 53 22 4 -1 7 4 7 10 0 5 5 7 10 4 6 -3 10 -2 10 3 0 5 24 19
53 33 28 13 54 27 55 32 2 4 8 5 13 1 5 -3 9 -1 9 5 0 6 6 8 14 5 8 -3 17 0
22 7 5 8 3 10 -6 4 -8 -5 -11 -4 -6 3 4 6 13 9 21 6 8 -4 18 1 21 10 3 9 10
14 14 11 5 -3 11 -1 15 5 4 6 11 8 16 5 5 -4 9 -1 9 5 0 6 5 8 10 5 6 -3 13 1
16 9 3 9 10 14 14 11 5 -3 15 2 24 11 9 8 21 12 27 8 7 -4 9 -3 6 3 -6 10 17
26 27 20 2 -1 13 6 23 16 11 9 23 14 26 10 4 -3 7 -2 7 4 0 6 7 14 16 17 10 4
13 2 8 -7 -7 -12 36 21 47 36 3 5 8 8 10 7 7 -3 64 24 70 34 4 5 12 5 19 1 9
-5 11 -4 6 3 -4 7 -1 12 8 12 8 0 22 7 30 16 9 8 16 12 16 8 0 -3 7 -1 15 6 8
7 15 9 15 4 0 -5 5 -1 11 9 6 9 14 15 20 12 5 -4 9 -1 9 4 0 6 3 10 8 9 4 -1
17 3 28 10 12 6 25 8 29 4 5 -4 5 -2 2 4 -3 6 9 16 29 23 18 7 34 17 34 22 0
6 5 7 10 4 6 -3 10 -2 10 4 0 5 17 15 37 22 20 6 46 20 57 30 11 11 23 19 28
19 15 0 23 4 36 17 8 7 18 11 23 7 5 -3 8 0 7 8 -2 7 4 13 12 13 8 0 17 2 20
6 13 14 79 49 94 49 10 0 14 5 10 11 -4 7 -1 10 7 7 7 -2 23 4 33 14 11 10 26
16 34 13 7 -2 10 0 7 5 -3 5 6 12 20 16 14 3 25 10 25 16 0 5 4 7 9 4 5 -3 14
1 21 9 7 8 16 12 21 9 5 -3 9 0 9 6 0 6 5 8 10 5 6 -3 10 -3 10 2 0 4 18 17
40 27 22 10 37 23 34 27 -3 5 2 6 10 3 9 -4 16 -1 16 6 0 7 7 10 16 6 8 -3 12
-2 9 4 -6 9 8 14 28 11 4 0 7 5 7 13 0 13 34 30 54 27 5 -1 6 5 2 14 -4 10 -1
15 9 13 7 -2 21 6 30 17 9 11 13 13 9 5 -3 -8 4 -5 17 7 13 12 35 32 49 45 14
13 29 22 33 20 5 -1 6 2 3 7 -3 5 7 17 22 27 32 21 52 40 52 50 0 4 10 16 23
28 12 12 36 39 52 60 17 22 38 47 48 57 9 11 14 19 10 19 -5 0 0 7 11 15 10 8
15 19 10 26 -4 7 -3 10 4 5 6 -3 13 3 17 14 3 11 11 20 16 20 6 0 8 4 4 9 -3
6 7 22 22 37 16 14 22 23 16 20 -7 -4 -13 -2 -13 3 0 6 4 11 9 11 14 0 53 81
47 97 -3 8 -1 11 4 8 9 -6 14 8 11 28 0 4 3 7 8 7 5 0 8 11 7 24 -2 16 1 23
10 19 8 -3 12 4 10 21 -2 14 1 26 6 26 5 0 6 5 3 10 -3 5 -1 10 5 10 7 0 10 6
7 14 -3 8 -1 17 6 20 8 3 8 5 -1 5 -10 1 -10 5 2 17 14 13 22 50 17 78 -1 4 3
14 10 22 6 8 9 23 6 34 -3 11 -1 20 3 20 4 0 6 9 3 20 -3 11 -1 20 3 20 5 0 9
23 8 51 0 27 4 53 9 56 5 3 3 9 -4 14 -8 5 -9 9 -4 9 6 0 10 16 9 35 -1 21 3
35 10 35 6 0 4 5 -4 10 -8 5 -10 10 -4 10 14 0 14 33 0 42 -8 6 -8 8 1 8 15 0
14 62 -1 72 -8 6 -8 8 1 8 8 0 12 38 13 127 1 71 2 167 3 216 1 52 -2 87 -8
87 -5 0 -4 4 3 9 15 9 15 17 1 44 -7 12 -6 17 3 17 10 0 10 2 -1 9 -9 6 -10
11 -2 15 7 4 7 15 1 31 -6 16 -6 27 1 31 8 4 7 9 -2 15 -8 5 -9 9 -3 9 10 0
10 67 0 113 -2 9 1 17 7 17 7 0 5 5 -3 10 -12 8 -12 10 -1 10 9 0 10 4 3 13
-5 6 -6 21 -2 32 4 11 3 28 -2 38 -6 12 -5 17 4 17 9 0 9 3 -2 10 -8 5 -10 10
-4 10 8 0 9 11 4 35 -4 19 -4 35 0 35 5 0 5 13 0 29 -6 21 -5 31 3 35 7 2 7 5
2 5 -10 1 -10 93 -1 118 3 7 0 13 -7 13 -8 0 -8 3 2 9 11 7 11 9 0 14 -9 4
-10 6 -2 6 7 1 10 7 7 15 -10 27 -9 506 1 510 7 3 7 5 0 5 -10 1 -12 197 -1
208 3 3 1 14 -4 24 -7 12 -6 19 3 22 7 4 8 6 1 6 -7 1 -10 14 -8 33 2 17 -1
37 -7 45 -9 11 -8 12 4 7 14 -5 15 -1 7 25 -5 17 -5 31 0 31 5 0 5 13 0 29 -6
21 -5 31 3 35 9 3 9 5 0 5 -6 1 -9 10 -6 21 3 11 10 17 17 13 8 -5 8 -3 0 8
-16 20 -24 58 -13 64 4 3 4 16 -1 30 -6 16 -6 27 1 31 8 4 7 9 -2 15 -8 5 -9
9 -4 9 9 0 10 229 3 598 -2 67 1 122 5 122 5 0 5 5 1 12 -10 16 -11 68 -1 68
4 0 3 9 -3 20 -8 15 -8 20 2 20 9 0 9 3 -2 10 -11 7 -11 10 -2 10 10 0 10 5 2
20 -8 15 -8 20 2 20 6 0 3 7 -8 15 -18 14 -18 15 0 9 16 -6 17 -4 7 14 -9 17
-9 22 1 22 8 0 9 3 3 8 -11 8 -15 52 -6 52 7 0 5 76 -3 97 -3 7 0 13 6 13 6 0
3 10 -8 22 -10 12 -13 18 -5 13 11 -6 13 -1 9 24 -2 17 -1 31 4 31 5 0 4 9 -2
20 -8 14 -8 20 0 20 6 0 8 4 5 10 -11 17 -11 420 0 424 7 3 7 5 0 5 -6 1 -9
35 -9 84 1 51 -3 85 -10 89 -8 6 -8 8 0 8 13 0 12 58 -1 80 -6 9 -4 11 6 5 11
-7 12 -6 3 6 -6 8 -10 25 -10 39 1 14 -3 28 -9 32 -6 5 -5 8 3 8 9 0 10 5 4
18 -5 9 -8 29 -7 45 1 15 -1 27 -5 27 -3 0 -6 10 -7 23 -2 65 -8 107 -15 107
-4 0 -8 20 -8 45 0 25 -4 45 -8 45 -9 0 -10 7 -13 55 -1 14 -6 25 -11 25 -6 0
-8 9 -5 20 3 11 1 20 -4 20 -5 0 -8 3 -7 8 2 12 -14 62 -21 62 -4 0 -8 9 -9
20 -4 43 -6 50 -14 50 -4 0 -8 8 -8 19 0 10 -7 24 -15 31 -8 7 -12 16 -9 21 3
5 0 9 -6 9 -6 0 -9 4 -5 9 3 6 -3 14 -12 20 -10 6 -14 11 -9 11 4 0 -3 15 -18
34 -14 19 -26 39 -26 45 0 6 -3 10 -8 8 -4 -1 -7 1 -7 5 0 4 -9 14 -20 22 -11
9 -16 16 -11 16 4 0 -6 13 -23 29 -16 15 -27 31 -24 35 3 3 -1 6 -10 6 -10 0
-17 6 -17 13 0 7 -13 23 -30 37 -16 14 -30 30 -30 37 0 7 -4 12 -8 10 -4 -1
-24 14 -43 33 -20 19 -41 36 -47 37 -6 2 -22 13 -36 25 -66 60 -76 68 -76 61
0 -4 -5 0 -11 10 -5 9 -17 17 -24 17 -8 0 -15 5 -15 11 0 5 -4 8 -9 4 -5 -3
-20 5 -33 17 -13 13 -30 24 -38 26 -8 2 -16 8 -18 13 -2 5 -9 9 -17 9 -7 0
-18 7 -25 15 -7 8 -16 12 -21 9 -5 -3 -9 0 -9 5 0 6 -7 11 -15 11 -8 0 -15 4
-15 9 0 5 -7 12 -16 15 -10 4 -13 2 -9 -7 4 -6 0 -4 -8 6 -8 9 -22 17 -31 17
-9 0 -16 3 -16 8 0 4 -30 23 -67 42 -38 19 -70 37 -73 41 -7 8 -44 22 -52 21
-5 -1 -8 5 -8 13 0 9 -6 12 -15 9 -8 -4 -15 -1 -15 6 0 6 -4 8 -10 5 -5 -3
-10 -1 -10 4 0 6 -7 11 -15 11 -8 0 -15 5 -15 10 0 6 -7 10 -15 10 -8 0 -24 9
-34 19 -14 14 -21 16 -25 8 -2 -7 -5 -4 -5 6 -1 10 -5 16 -11 12 -5 -3 -18 2
-28 12 -10 10 -26 19 -36 21 -11 2 -25 10 -33 18 -8 8 -25 17 -39 20 -13 3
-24 10 -24 15 0 5 -7 9 -15 9 -8 0 -15 5 -15 11 0 5 -4 7 -10 4 -5 -3 -10 -1
-10 4 0 6 -3 10 -7 9 -11 -2 -47 14 -53 23 -3 4 -12 9 -20 11 -20 4 -39 22
-33 30 2 4 -3 5 -11 2 -9 -3 -16 -1 -16 5 0 6 -3 10 -7 10 -22 -4 -33 3 -33
18 0 13 -3 14 -11 6 -9 -9 -17 -6 -32 8 -12 11 -38 27 -59 36 -21 9 -38 20
-38 25 0 4 -3 7 -7 6 -14 -4 -53 13 -49 21 3 4 -5 8 -17 8 -12 1 -23 7 -25 13
-2 5 -12 10 -23 10 -10 0 -19 5 -19 10 0 6 -9 10 -20 10 -11 0 -20 4 -20 8 0
5 -22 19 -50 31 -27 12 -50 27 -50 32 0 6 -4 7 -10 4 -5 -3 -10 -1 -10 5 0 6
-4 8 -10 5 -5 -3 -10 -1 -10 4 0 6 -7 11 -15 11 -8 0 -15 5 -15 11 0 5 -4 8
-9 4 -6 -3 -14 3 -20 12 -6 11 -11 13 -11 5 0 -13 -8 -9 -43 24 -6 6 -19 9
-29 6 -12 -3 -18 1 -18 12 0 10 -4 14 -10 11 -5 -3 -10 -1 -10 6 0 7 -3 9 -7
6 -3 -4 -17 0 -30 8 -13 9 -23 12 -23 8 0 -4 -7 2 -16 13 -8 10 -13 12 -9 4 4
-10 2 -9 -8 2 -8 10 -17 15 -20 11 -4 -3 -7 -1 -7 6 0 7 -4 10 -9 6 -5 -3 -16
2 -24 10 -9 8 -23 15 -31 15 -9 0 -16 5 -16 11 0 5 -4 7 -10 4 -5 -3 -10 -2
-10 4 0 6 -7 7 -17 4 -11 -4 -14 -3 -9 5 4 7 1 12 -8 12 -9 0 -16 4 -16 10 0
5 -7 7 -15 4 -8 -4 -15 -1 -15 6 0 6 -4 8 -10 5 -5 -3 -10 -1 -10 4 0 6 -7 11
-16 11 -9 0 -12 5 -8 13 4 6 4 9 0 5 -5 -4 -24 2 -44 12 -19 11 -40 16 -45 13
-6 -3 -7 -1 -3 5 4 7 1 12 -8 12 -9 0 -16 5 -16 11 0 5 -4 7 -10 4 -5 -3 -10
-1 -10 5 0 6 -4 8 -10 5 -5 -3 -10 -1 -10 5 0 6 -5 8 -10 5 -6 -3 -13 1 -16 9
-3 9 -10 14 -14 11 -5 -3 -11 -1 -15 5 -4 6 -11 8 -16 5 -5 -4 -9 -1 -9 4 0 6
-9 11 -20 11 -11 0 -20 5 -20 10 0 6 -7 10 -15 10 -8 0 -15 5 -15 11 0 5 -4 8
-9 4 -5 -3 -12 -1 -16 5 -4 6 -11 8 -16 5 -5 -4 -9 -1 -9 4 0 6 -7 11 -15 11
-8 0 -15 4 -15 9 0 5 -7 12 -16 15 -10 4 -13 2 -9 -7 4 -6 1 -5 -7 4 -7 9 -16
17 -20 18 -30 8 -67 29 -61 34 3 4 -1 7 -10 7 -19 0 -58 20 -68 34 -4 5 -12 5
-18 2 -7 -5 -10 -2 -9 6 2 8 -4 12 -14 10 -10 -2 -18 2 -18 8 0 6 -4 8 -10 5
-5 -3 -10 -2 -10 2 0 5 -18 16 -40 26 -22 9 -40 22 -40 28 0 5 -4 8 -9 5 -11
-7 -74 23 -84 41 -7 12 -11 12 -25 1 -9 -7 -13 -8 -9 -2 4 7 -5 17 -23 24 -17
7 -30 16 -30 21 0 5 -5 9 -11 9 -5 0 -7 -6 -4 -12 4 -7 0 -5 -8 5 -8 9 -19 17
-26 17 -6 0 -11 4 -11 10 0 5 -7 6 -17 3 -11 -4 -14 -3 -9 5 5 8 0 12 -13 12
-10 0 -21 4 -23 9 -1 5 -10 11 -18 13 -8 2 -17 5 -20 8 -3 3 -26 16 -52 29
-27 13 -48 28 -48 33 0 4 -9 8 -20 8 -11 0 -20 5 -20 11 0 5 -4 7 -10 4 -5 -3
-10 -1 -10 6 0 7 -3 9 -7 6 -3 -4 -12 1 -20 11 -10 11 -12 12 -8 2 4 -10 2 -9
-8 2 -8 10 -17 15 -20 12 -3 -3 -19 4 -35 16 -17 12 -35 19 -41 16 -6 -4 -11
-3 -11 1 0 5 -9 14 -21 21 -17 11 -20 11 -14 0 3 -7 0 -5 -8 4 -8 10 -17 15
-20 11 -4 -3 -7 -1 -7 5 0 7 -9 12 -20 12 -11 0 -20 5 -20 11 0 5 -4 7 -10 4
-5 -3 -10 -1 -10 5 0 7 -6 10 -12 7 -7 -2 -21 5 -30 15 -9 11 -21 17 -26 14
-6 -3 -12 1 -16 9 -3 8 -15 15 -26 15 -11 0 -20 5 -20 10 0 6 -9 10 -21 10
-11 0 -27 7 -36 16 -9 8 -21 13 -29 10 -7 -3 -14 0 -16 5 -2 6 -12 12 -23 14
-11 2 -22 4 -25 5 -3 1 -8 2 -12 1 -5 0 -8 4 -8 11 0 6 -3 9 -6 5 -4 -3 -20 1
-36 9 -16 8 -33 12 -38 9 -6 -3 -10 -1 -10 4 0 6 -8 11 -18 11 -10 0 -22 3
-26 7 -6 6 -16 9 -56 17 -8 2 -26 8 -40 13 -14 6 -31 8 -37 6 -7 -3 -13 0 -13
6 0 6 -3 10 -7 10 -29 -5 -53 2 -47 14 5 8 2 8 -9 -2 -13 -10 -17 -10 -17 -1
0 8 -9 11 -25 8 -13 -3 -22 -2 -20 2 3 4 -6 10 -20 12 -15 3 -25 1 -25 -6 0
-8 -2 -8 -8 0 -11 16 -42 25 -42 12 0 -7 -6 -6 -17 3 -10 8 -33 14 -50 13 -18
-1 -33 2 -33 8 0 7 -5 7 -13 -1 -8 -6 -17 -7 -21 -3 -10 9 -526 9 -526 0z
m300 -721 c33 0 60 -4 60 -10 0 -5 6 -5 13 2 8 6 17 8 20 5 3 -3 30 -8 59 -10
50 -3 68 -6 121 -20 12 -3 29 -7 37 -8 9 -1 20 -5 25 -8 6 -3 18 -4 28 -3 9 2
17 -1 17 -5 0 -5 9 -7 20 -5 11 2 20 0 20 -6 0 -5 11 -9 25 -9 14 0 25 -4 25
-10 0 -5 7 -7 15 -4 8 4 15 1 15 -6 0 -6 5 -8 10 -5 6 3 10 0 10 -7 0 -9 3 -9
10 2 5 8 10 10 10 4 0 -6 18 -17 40 -24 22 -7 40 -17 40 -22 0 -4 3 -7 8 -6
11 3 82 -25 82 -32 0 -4 18 -13 40 -20 22 -7 40 -17 40 -22 0 -4 9 -8 21 -8
11 0 17 -4 14 -10 -3 -5 3 -10 14 -10 11 0 26 -6 33 -13 7 -7 18 -14 23 -15
30 -6 45 -15 39 -23 -3 -5 -2 -8 3 -7 13 4 73 -23 73 -33 0 -5 9 -9 20 -9 11
0 20 -4 20 -10 0 -5 7 -10 16 -10 8 0 22 -7 31 -15 8 -8 19 -13 24 -10 5 4 9
1 9 -4 0 -6 9 -11 21 -11 11 0 17 -4 14 -10 -3 -5 3 -10 14 -10 12 0 21 -5 21
-11 0 -5 5 -7 10 -4 6 3 10 1 10 -5 0 -6 5 -8 10 -5 6 3 10 2 10 -4 0 -5 16
-15 35 -22 19 -7 35 -17 35 -21 0 -4 9 -8 21 -8 11 0 17 -4 14 -10 -3 -5 0 -7
8 -4 8 3 20 -2 27 -11 7 -8 19 -15 26 -15 8 0 14 -4 14 -10 0 -5 9 -10 19 -10
11 0 21 -5 23 -10 2 -6 14 -12 27 -15 14 -2 27 -9 30 -14 6 -9 43 -26 66 -31
6 -1 14 -8 18 -16 4 -8 17 -14 27 -14 11 0 20 -5 20 -11 0 -5 4 -8 9 -4 5 3
16 -2 25 -11 9 -8 20 -13 25 -10 5 3 11 -1 15 -9 3 -8 15 -15 26 -15 11 0 20
-4 20 -10 0 -5 7 -10 15 -10 8 0 15 -5 15 -11 0 -5 5 -7 10 -4 6 3 10 1 10 -5
0 -6 5 -8 10 -5 6 3 10 1 10 -4 0 -6 7 -11 16 -11 8 0 22 -7 31 -15 8 -8 19
-13 24 -10 5 4 9 -1 9 -9 0 -9 7 -13 20 -11 11 2 20 0 20 -5 0 -4 20 -18 45
-30 25 -12 45 -27 46 -33 0 -8 2 -7 6 1 3 9 10 7 23 -9 11 -11 23 -18 28 -15
6 3 13 -1 16 -10 4 -9 9 -14 13 -11 3 4 18 -2 33 -13 15 -11 30 -17 34 -13 3
3 6 2 6 -4 0 -10 35 -26 52 -24 3 0 12 -6 18 -14 7 -8 17 -15 22 -15 5 0 16
-7 25 -15 8 -9 28 -19 44 -22 16 -3 26 -9 23 -14 -3 -5 4 -9 15 -9 11 0 24 -6
28 -14 4 -8 13 -15 18 -15 22 -2 52 -15 88 -38 20 -13 37 -20 37 -16 0 4 6 -1
13 -12 8 -10 18 -16 23 -13 12 7 35 -18 26 -27 -4 -4 0 -6 8 -3 8 3 32 -6 52
-19 21 -12 42 -23 46 -23 5 0 26 -11 46 -25 21 -14 34 -20 31 -13 -4 7 -1 6 7
-2 7 -8 20 -16 28 -18 8 -2 17 -8 18 -13 2 -5 7 -7 12 -4 4 2 17 -4 29 -14 12
-10 36 -25 54 -32 17 -7 36 -19 40 -26 4 -7 16 -13 25 -13 10 0 27 -7 38 -15
12 -8 24 -11 28 -8 3 3 6 1 6 -5 0 -7 7 -12 15 -12 8 0 15 -4 15 -10 0 -5 9
-10 20 -10 11 0 20 -5 20 -11 0 -5 5 -7 10 -4 6 3 10 1 10 -5 0 -6 5 -8 10 -5
6 3 10 3 10 -2 0 -4 15 -14 33 -22 17 -8 48 -25 67 -39 19 -15 29 -18 21 -9
-19 24 -6 21 21 -5 13 -13 30 -24 37 -26 7 -1 20 -9 28 -17 8 -9 18 -13 23
-10 5 3 16 -5 24 -17 9 -12 16 -19 16 -15 0 4 18 -2 40 -13 22 -11 40 -25 40
-31 0 -6 4 -7 10 -4 5 3 19 -3 31 -14 12 -11 26 -18 31 -15 4 3 8 0 8 -5 0 -6
9 -11 21 -11 11 0 17 -4 14 -10 -3 -5 3 -10 14 -10 12 0 21 -3 21 -8 0 -8 55
-34 66 -32 4 1 10 -2 13 -7 3 -5 27 -20 54 -33 26 -14 47 -29 47 -33 0 -5 5
-5 10 -2 6 3 10 1 10 -6 0 -7 3 -9 6 -6 4 4 19 -2 33 -11 14 -10 49 -29 76
-42 28 -14 51 -28 53 -32 2 -4 10 -4 18 -1 8 3 14 1 14 -4 0 -4 17 -17 38 -28
20 -10 49 -28 65 -38 15 -10 27 -16 27 -12 0 3 10 -3 22 -14 11 -11 25 -18 30
-15 4 3 8 0 8 -5 0 -6 7 -11 15 -11 8 0 15 -4 15 -10 0 -5 7 -10 15 -10 8 0
15 -4 15 -10 0 -5 4 -10 10 -10 12 0 34 -18 103 -84 29 -27 46 -45 38 -41 -9
5 -12 4 -7 -3 4 -7 14 -12 22 -12 8 0 14 -5 14 -11 0 -5 -5 -7 -12 -3 -6 4 -3
-5 8 -19 10 -15 23 -27 27 -27 5 0 5 -4 2 -10 -3 -5 -2 -10 4 -10 6 0 8 -7 5
-15 -4 -8 -1 -15 5 -15 6 0 11 -9 11 -20 0 -11 4 -20 10 -20 5 0 7 -6 4 -14
-3 -8 -1 -17 5 -20 6 -4 8 -13 4 -21 -3 -9 1 -15 8 -15 11 0 11 -3 -1 -10 -10
-6 -11 -10 -2 -10 7 0 12 -13 12 -30 0 -16 4 -30 9 -30 5 0 8 -12 7 -27 -2
-16 1 -34 6 -40 7 -9 7 -13 -1 -13 -7 0 -8 -8 -1 -25 5 -14 7 -25 4 -25 -4 0
-1 -7 6 -15 10 -12 10 -15 -1 -15 -9 0 -10 -3 -3 -8 14 -9 14 -42 0 -42 -6 0
-5 -4 3 -9 7 -5 11 -15 9 -22 -3 -8 -1 -22 4 -31 6 -13 5 -18 -4 -18 -9 0 -9
-3 2 -10 11 -7 11 -10 2 -10 -10 0 -10 -5 -2 -20 8 -15 8 -20 -2 -20 -9 0 -9
-3 2 -10 13 -9 13 -11 0 -20 -13 -9 -13 -10 0 -10 13 0 13 -1 0 -10 -13 -9
-13 -11 0 -20 13 -9 13 -10 0 -10 -13 0 -13 -1 0 -10 8 -5 10 -10 4 -10 -10 0
-10 -60 1 -88 2 -7 0 -10 -5 -7 -7 4 -9 -5 -5 -25 3 -19 0 -39 -7 -48 -11 -13
-11 -14 0 -8 11 6 13 0 11 -31 -2 -21 0 -44 5 -51 4 -7 3 -12 -2 -12 -5 0 -7
-21 -4 -46 4 -39 2 -45 -9 -39 -12 7 -12 6 -1 -7 7 -9 12 -33 12 -55 -1 -21 1
-50 3 -65 2 -17 0 -28 -7 -28 -6 0 -4 -5 4 -10 11 -7 11 -10 2 -10 -10 0 -10
-5 -2 -20 6 -11 7 -20 2 -20 -11 0 -9 -53 3 -62 6 -5 6 -8 -1 -8 -8 0 -9 -13
-4 -40 4 -22 4 -37 0 -35 -5 3 -6 -12 -3 -33 2 -20 4 -41 4 -47 -1 -5 -2 -30
-4 -55 -1 -25 1 -50 5 -56 5 -7 2 -19 -7 -28 -9 -9 -12 -16 -7 -16 14 0 12
-103 -2 -112 -8 -5 -7 -8 2 -8 6 0 12 -5 12 -11 0 -5 -6 -7 -12 -4 -7 4 -4 -1
6 -9 11 -9 15 -16 9 -16 -6 0 -9 -15 -6 -36 3 -27 1 -34 -9 -28 -10 6 -10 5
-2 -7 12 -15 24 -100 13 -93 -11 6 -5 -70 6 -78 7 -5 6 -8 -1 -8 -6 0 -9 -16
-7 -37 1 -20 -3 -43 -10 -52 -7 -9 -8 -12 -1 -8 7 4 12 -2 12 -18 0 -16 -5
-22 -12 -18 -6 4 -5 -1 2 -10 8 -9 11 -21 7 -27 -3 -5 0 -10 7 -11 8 0 9 -2 2
-5 -6 -3 -10 -19 -8 -36 2 -18 -1 -35 -8 -40 -9 -5 -9 -8 -2 -8 7 0 15 -7 18
-16 3 -9 2 -12 -5 -9 -6 4 -7 -3 -3 -19 4 -18 2 -26 -7 -26 -11 0 -11 -3 1
-10 12 -8 13 -12 2 -19 -11 -7 -10 -9 3 -14 11 -5 13 -12 8 -24 -11 -23 -10
-84 1 -102 6 -10 5 -12 -2 -7 -14 9 -14 9 -3 -32 6 -18 7 -30 3 -28 -9 5 -7
-112 1 -121 4 -3 -1 -12 -11 -20 -9 -8 -12 -12 -6 -9 15 7 15 -47 0 -56 -8 -6
-8 -8 1 -8 14 0 16 -107 2 -116 -6 -3 -6 -10 -1 -17 12 -16 22 -58 12 -52 -4
3 -10 -2 -14 -10 -3 -8 0 -17 5 -21 6 -3 9 -15 6 -25 -3 -11 0 -19 6 -20 7 0
8 -2 2 -5 -9 -4 -10 -33 -2 -111 2 -17 0 -30 -3 -28 -4 3 -5 -25 -3 -61 3 -40
0 -70 -7 -79 -8 -10 -8 -15 1 -21 8 -5 9 -3 4 6 -5 9 -4 11 3 6 7 -4 8 -16 4
-29 -6 -19 -7 -62 -2 -77 5 -15 4 -67 -2 -64 -4 2 -9 0 -13 -6 -3 -5 -2 -10 4
-10 5 0 9 -25 9 -58 -1 -32 2 -64 6 -70 4 -7 3 -12 -3 -12 -6 0 -6 -11 -1 -30
5 -19 5 -30 -1 -30 -6 0 -5 -8 1 -20 6 -11 7 -20 3 -20 -9 0 -8 -195 2 -210 3
-5 2 -10 -3 -10 -4 0 -7 -19 -5 -41 2 -24 -2 -49 -9 -57 -9 -10 -9 -13 -1 -9
8 5 11 -16 11 -78 -1 -53 -5 -82 -11 -78 -6 4 -7 1 -1 -8 13 -22 14 -43 1 -51
-8 -5 -9 -8 -1 -8 14 0 13 -68 0 -89 -6 -10 -6 -12 2 -7 8 5 12 -2 12 -18 0
-14 -6 -26 -12 -26 -9 0 -10 -3 -2 -8 15 -10 16 -114 0 -105 -6 4 -5 -1 3 -11
13 -15 13 -19 0 -27 -13 -8 -6 -13 14 -10 5 1 5 -4 1 -10 -4 -7 -7 -25 -6 -41
0 -19 -3 -26 -11 -21 -7 4 -7 0 1 -10 8 -9 11 -21 8 -26 -4 -5 -2 -12 4 -16 6
-4 7 -13 1 -23 -4 -9 -6 -23 -3 -31 3 -10 0 -11 -9 -5 -12 7 -12 5 0 -9 11
-14 11 -17 0 -17 -11 0 -11 -2 1 -10 12 -7 12 -10 1 -10 -7 0 -11 -6 -7 -15 3
-8 1 -15 -4 -15 -5 0 -7 -7 -4 -15 4 -8 0 -23 -7 -32 -10 -12 -10 -15 -1 -9 6
4 12 3 12 -3 0 -5 -4 -13 -10 -16 -5 -3 -10 -17 -10 -30 0 -13 -5 -27 -10 -30
-6 -4 -8 -11 -5 -16 4 -5 2 -9 -4 -9 -5 0 -8 -8 -7 -17 2 -10 0 -20 -3 -23 -3
-3 -17 -27 -31 -55 -14 -27 -31 -54 -38 -58 -7 -5 -10 -12 -7 -17 3 -5 -4 -14
-16 -20 -11 -7 -18 -14 -15 -17 3 -3 -2 -12 -12 -20 -11 -9 -12 -12 -2 -8 8 4
-1 -7 -20 -24 -19 -17 -38 -31 -42 -31 -4 0 -10 -9 -13 -20 -4 -11 -11 -18
-16 -15 -5 4 -9 1 -9 -4 0 -6 -7 -11 -15 -11 -8 0 -15 -5 -15 -10 0 -6 -8 -13
-17 -17 -10 -3 -29 -15 -42 -27 -15 -13 -21 -15 -17 -6 7 13 6 13 -6 0 -7 -8
-20 -16 -28 -18 -8 -2 -22 -10 -31 -18 -8 -8 -21 -14 -27 -14 -6 0 -16 -8 -21
-17 -6 -10 -11 -14 -11 -9 0 5 -9 1 -19 -8 -11 -10 -25 -15 -32 -10 -7 4 -10
3 -5 -4 4 -6 -8 -16 -29 -23 -19 -7 -35 -17 -35 -22 0 -4 -4 -6 -8 -3 -5 3
-18 -3 -28 -13 -11 -10 -27 -17 -37 -15 -9 1 -17 -4 -17 -12 0 -9 -5 -12 -11
-9 -5 4 -19 -1 -30 -11 -10 -9 -19 -14 -19 -9 0 4 -15 -4 -34 -19 -19 -14 -42
-26 -50 -26 -9 0 -16 -5 -16 -10 0 -6 -3 -9 -7 -9 -21 3 -33 -2 -27 -13 4 -6
3 -8 -4 -4 -6 3 -17 0 -25 -8 -8 -8 -17 -12 -21 -9 -3 4 -6 1 -6 -5 0 -7 -3
-11 -7 -10 -13 3 -93 -36 -93 -45 0 -4 -4 -5 -10 -2 -5 3 -10 1 -10 -4 0 -6
-9 -11 -20 -11 -11 0 -20 -4 -20 -10 0 -5 -7 -10 -15 -10 -8 0 -15 -5 -15 -11
0 -6 -7 -9 -15 -5 -8 3 -15 1 -15 -4 0 -5 -11 -12 -25 -16 -14 -3 -25 -10 -25
-16 0 -5 -4 -7 -9 -4 -5 3 -20 -4 -35 -15 -14 -11 -30 -17 -36 -14 -5 3 -10 2
-10 -3 0 -5 -18 -17 -40 -28 -22 -10 -40 -23 -40 -27 0 -5 -4 -6 -9 -2 -5 3
-12 1 -16 -5 -4 -6 -10 -8 -15 -5 -5 3 -11 -4 -15 -14 -3 -11 -12 -18 -19 -15
-7 3 -19 -2 -26 -11 -7 -8 -21 -15 -31 -15 -10 0 -22 -6 -26 -14 -4 -8 -12
-15 -18 -16 -24 -5 -54 -20 -60 -30 -3 -5 -10 -8 -15 -5 -5 3 -11 1 -15 -5 -4
-6 -11 -8 -16 -5 -5 4 -9 -1 -9 -9 0 -8 -5 -18 -12 -22 -7 -5 -8 -3 -3 6 5 8
3 11 -6 8 -8 -3 -13 -11 -11 -17 1 -7 -2 -9 -9 -5 -7 4 -18 -1 -26 -12 -8 -10
-17 -19 -21 -18 -16 2 -42 -9 -42 -18 0 -5 -4 -6 -10 -3 -5 3 -10 1 -10 -4 0
-6 -7 -11 -15 -11 -8 0 -15 -4 -15 -10 0 -5 -7 -7 -15 -4 -8 4 -17 -1 -21 -9
-3 -9 -12 -13 -20 -10 -8 3 -14 -1 -14 -8 0 -7 -3 -10 -6 -6 -3 3 -14 -2 -25
-11 -11 -9 -23 -17 -27 -17 -4 -1 -17 -6 -30 -13 -12 -7 -27 -10 -32 -7 -6 4
-9 1 -8 -7 2 -7 -3 -12 -9 -10 -7 1 -13 -2 -13 -7 0 -5 -15 -14 -32 -22 -18
-7 -36 -17 -39 -21 -3 -5 -15 -10 -27 -11 -11 0 -19 -4 -17 -8 3 -3 -16 -15
-40 -25 -25 -10 -45 -22 -45 -27 0 -4 -5 -5 -11 -2 -6 4 -17 -1 -24 -11 -8
-11 -15 -15 -15 -10 0 5 -9 -1 -20 -14 -13 -15 -20 -18 -20 -9 0 11 -2 11 -10
-1 -5 -8 -10 -10 -10 -5 0 6 -5 2 -11 -8 -6 -9 -14 -15 -19 -12 -4 3 -11 -3
-14 -12 -6 -15 -8 -15 -16 -3 -6 8 -10 10 -10 4 0 -6 -21 -22 -47 -35 -27 -13
-50 -27 -53 -30 -3 -4 -14 -9 -25 -11 -11 -2 -19 -10 -17 -17 1 -7 -2 -10 -7
-7 -5 4 -12 2 -16 -4 -4 -6 -11 -8 -16 -5 -5 4 -9 2 -9 -4 0 -10 -39 -27 -54
-23 -5 2 -6 -4 -3 -12 4 -9 3 -15 -1 -15 -24 4 -42 -2 -36 -13 4 -6 3 -8 -4
-5 -15 10 -43 -3 -35 -17 3 -6 3 -8 -2 -4 -4 4 -20 1 -36 -8 -16 -8 -32 -14
-35 -13 -4 0 -11 -6 -16 -15 -5 -9 -13 -14 -19 -11 -5 4 -9 1 -9 -5 0 -6 -4
-9 -9 -6 -5 3 -20 -5 -33 -17 -14 -13 -33 -22 -42 -21 -9 1 -14 -2 -10 -7 3
-5 -4 -9 -16 -9 -11 0 -23 -7 -26 -15 -4 -8 -10 -13 -14 -10 -4 3 -13 -2 -20
-10 -7 -8 -16 -12 -21 -10 -4 3 -18 -5 -30 -17 -12 -13 -19 -17 -15 -10 4 7
-7 4 -27 -7 -19 -10 -45 -25 -58 -33 -13 -7 -28 -19 -32 -26 -5 -7 -13 -10
-18 -6 -6 3 -19 -4 -30 -17 -10 -12 -19 -19 -19 -16 0 9 -83 -34 -92 -47 -4
-6 -8 -8 -8 -3 0 4 -10 1 -23 -8 -13 -8 -27 -12 -32 -8 -4 5 -5 2 -1 -4 4 -8
1 -13 -8 -13 -9 0 -16 -5 -16 -11 0 -5 -4 -8 -9 -4 -5 3 -21 -6 -35 -20 -14
-14 -26 -21 -26 -15 0 6 -12 -1 -27 -15 -16 -14 -33 -23 -40 -21 -6 3 -14 -2
-17 -11 -4 -9 -9 -13 -12 -10 -4 3 -13 0 -21 -8 -8 -8 -23 -15 -34 -15 -11 0
-18 -4 -15 -9 6 -8 -47 -33 -60 -28 -3 1 -10 -6 -15 -16 -6 -9 -14 -15 -19
-12 -5 3 -11 1 -15 -5 -4 -6 -11 -8 -16 -5 -5 4 -9 3 -9 -2 0 -4 -35 -26 -77
-48 -43 -22 -80 -43 -81 -48 -2 -4 -7 -5 -12 -2 -5 3 -16 -2 -24 -11 -12 -11
-16 -12 -16 -2 0 8 -4 7 -11 -4 -5 -10 -19 -18 -29 -18 -10 0 -22 -5 -25 -10
-4 -6 -11 -8 -16 -5 -5 4 -9 1 -9 -5 0 -7 -7 -10 -15 -6 -8 3 -15 1 -15 -4 0
-6 -9 -10 -20 -10 -11 0 -20 -5 -20 -12 0 -6 -3 -9 -6 -5 -4 3 -21 0 -38 -7
-17 -7 -39 -12 -49 -10 -9 1 -17 -3 -17 -9 0 -5 -3 -7 -7 -4 -3 4 -12 2 -20
-4 -10 -9 -13 -8 -13 1 0 10 -3 10 -14 1 -8 -6 -18 -11 -22 -10 -5 1 -11 0
-14 -1 -6 -3 -58 -10 -90 -13 -14 -1 -28 -6 -32 -12 -5 -7 -8 -7 -8 0 0 6 -46
9 -120 9 -66 -1 -120 2 -120 6 0 5 -8 7 -17 5 -10 -1 -26 2 -35 7 -13 6 -18 5
-19 -4 0 -10 -2 -10 -6 0 -2 6 -9 9 -14 6 -6 -3 -17 0 -26 8 -14 11 -16 11 -8
-1 6 -11 5 -12 -6 -5 -8 5 -25 10 -39 12 -14 2 -26 7 -28 12 -2 5 -9 7 -17 4
-7 -3 -16 -1 -19 4 -3 6 -15 8 -26 5 -12 -3 -20 0 -20 6 0 7 -4 9 -10 6 -5 -3
-10 -2 -10 3 0 6 -10 8 -22 5 -19 -4 -20 -3 -8 7 13 10 12 11 -5 7 -11 -2 -26
2 -33 10 -7 7 -22 13 -32 13 -11 0 -20 5 -20 11 0 6 -7 8 -16 5 -8 -3 -13 -2
-10 3 3 5 -1 12 -10 15 -10 4 -13 2 -9 -7 4 -6 1 -5 -7 4 -7 9 -21 15 -30 13
-10 -1 -18 2 -18 7 0 5 -7 9 -15 9 -8 0 -15 5 -15 10 0 6 -9 10 -20 10 -11 0
-20 5 -20 11 0 6 -7 8 -16 5 -8 -3 -12 -2 -9 4 3 6 0 10 -9 10 -8 0 -16 3 -18
8 -5 12 -65 42 -83 42 -9 0 -13 5 -10 10 3 6 -1 10 -10 10 -9 0 -13 4 -10 10
3 5 0 7 -8 4 -8 -3 -21 1 -28 8 -25 23 -76 48 -84 40 -5 -4 -5 -1 -1 6 4 7 1
12 -8 12 -9 0 -16 5 -16 11 0 6 -7 8 -16 5 -10 -4 -13 -2 -8 6 5 8 2 9 -9 5
-10 -4 -16 -2 -14 6 1 7 -4 11 -10 9 -7 -1 -13 2 -13 6 0 5 -16 14 -35 22 -19
7 -32 17 -29 22 3 4 -1 5 -9 2 -8 -3 -21 2 -30 10 -9 9 -23 16 -31 16 -9 0
-16 4 -16 8 0 4 -12 13 -27 19 -16 7 -35 17 -43 22 -8 5 -32 17 -53 26 -20 9
-37 20 -37 25 0 5 -7 7 -15 4 -8 -4 -15 -1 -15 5 0 6 -6 11 -14 11 -7 0 -19 7
-26 15 -7 9 -18 14 -23 12 -6 -2 -19 5 -29 15 -10 10 -23 16 -28 13 -6 -4 -10
1 -10 10 0 9 -4 14 -10 10 -5 -3 -27 6 -49 20 -23 14 -47 25 -55 25 -8 0 -17
7 -20 16 -4 9 -13 14 -21 10 -8 -3 -15 -1 -15 4 0 6 -7 10 -15 10 -8 0 -15 6
-15 14 0 10 -7 12 -22 8 -14 -3 -19 -2 -14 6 4 7 1 12 -8 12 -9 0 -16 6 -16
13 0 8 -4 7 -10 -3 -6 -10 -10 -11 -10 -2 0 6 -7 12 -15 12 -8 0 -15 5 -15 11
0 6 -7 9 -15 5 -9 -3 -15 0 -15 10 0 8 -5 12 -10 9 -6 -3 -10 -1 -10 5 0 6 -4
8 -10 5 -6 -3 -10 -1 -10 5 0 6 -5 8 -10 5 -5 -3 -10 -1 -10 6 0 7 -3 9 -6 6
-4 -3 -18 3 -32 13 -13 11 -30 20 -37 20 -7 0 -18 7 -25 15 -7 8 -16 12 -21 9
-5 -3 -9 0 -9 5 0 6 -6 11 -14 11 -7 0 -19 7 -26 15 -7 8 -16 12 -21 9 -5 -3
-9 -1 -9 3 0 7 -80 47 -87 44 -2 -1 -12 8 -24 20 -11 11 -27 18 -35 15 -9 -3
-12 -1 -9 4 3 6 0 10 -9 10 -8 0 -16 4 -18 9 -1 5 -10 11 -18 13 -8 2 -23 11
-34 20 -11 10 -26 18 -33 18 -7 0 -13 5 -13 11 0 5 -4 8 -9 5 -5 -3 -11 1 -15
9 -3 8 -12 15 -21 15 -8 0 -15 5 -15 10 0 6 -5 10 -11 10 -5 0 -7 -6 -4 -12 4
-7 -1 -4 -9 6 -9 11 -16 16 -16 10 0 -5 -5 -1 -11 8 -6 11 -16 15 -26 11 -11
-4 -14 -3 -9 5 5 8 0 12 -13 12 -11 0 -23 4 -26 10 -3 5 -15 10 -26 10 -11 0
-17 5 -14 10 3 6 -3 10 -14 10 -12 0 -21 5 -21 10 0 6 -6 10 -13 10 -19 0 -67
24 -67 33 0 5 -4 6 -9 2 -5 -3 -16 2 -24 10 -9 8 -21 15 -27 15 -6 0 -8 5 -4
12 5 7 1 9 -12 6 -11 -3 -25 0 -31 6 -29 27 -48 41 -53 39 -7 -3 -60 21 -60
28 0 3 -16 11 -35 19 -19 8 -35 17 -35 22 0 4 -9 8 -21 8 -11 0 -17 5 -14 10
3 6 -3 10 -13 10 -11 0 -25 7 -32 15 -7 8 -16 12 -21 9 -5 -3 -9 -2 -9 3 0 9
-48 33 -67 33 -7 0 -13 4 -13 8 0 5 -16 14 -35 22 -19 8 -35 17 -35 22 0 4 -3
7 -7 7 -21 -3 -34 2 -28 11 4 6 3 10 -2 9 -24 -4 -43 2 -37 12 4 8 -1 9 -16 4
-15 -5 -20 -4 -16 4 4 6 0 11 -9 11 -10 0 -13 5 -9 12 4 6 3 8 -4 4 -6 -3 -13
-2 -17 4 -4 6 -11 8 -16 5 -5 -4 -9 2 -9 12 0 15 -2 16 -10 3 -9 -14 -14 -7
-11 13 1 5 -3 6 -8 3 -11 -7 -61 14 -61 26 0 4 -9 8 -20 8 -11 0 -20 5 -20 10
0 6 -8 10 -19 10 -10 0 -24 7 -31 15 -7 9 -19 14 -26 11 -7 -3 -15 2 -18 10
-3 9 -10 12 -16 9 -6 -3 -13 0 -16 9 -3 9 -12 12 -21 9 -11 -4 -14 -2 -9 5 5
8 -1 12 -18 12 -14 0 -26 4 -26 8 0 5 -16 14 -35 22 -19 8 -35 18 -35 22 0 5
-4 6 -10 3 -5 -3 -10 -1 -10 5 0 6 -4 9 -8 6 -5 -3 -19 4 -30 15 -14 13 -22
15 -22 7 0 -9 -3 -9 -10 2 -5 8 -15 15 -22 15 -7 1 -12 6 -11 12 2 7 -6 10
-17 8 -11 -2 -20 0 -20 4 0 5 -18 16 -39 24 -22 9 -42 21 -46 27 -3 6 -11 8
-16 5 -5 -4 -9 -1 -9 4 0 6 -6 11 -14 11 -7 0 -19 7 -26 15 -7 8 -16 12 -21 9
-5 -3 -9 0 -9 6 0 6 -5 8 -10 5 -6 -3 -10 -1 -10 5 0 7 -7 9 -16 6 -8 -3 -12
-2 -9 4 3 6 -1 10 -10 10 -10 0 -13 5 -9 12 4 6 3 8 -4 5 -15 -10 -43 3 -35
16 4 6 1 7 -7 2 -8 -5 -18 -1 -27 10 -7 11 -13 16 -13 12 0 -9 -13 2 -65 50
-20 18 -40 33 -46 33 -5 0 -7 5 -4 10 3 6 -1 10 -10 10 -9 0 -14 4 -11 9 3 5
-1 12 -10 15 -8 3 -13 10 -10 15 3 5 -1 12 -10 15 -8 3 -12 10 -9 16 3 5 2 10
-3 10 -5 0 -15 13 -22 30 -7 16 -15 28 -19 26 -4 -3 -8 5 -8 16 -1 12 -8 25
-15 29 -7 5 -9 9 -4 9 5 0 3 7 -4 15 -7 8 -9 15 -5 15 4 0 2 6 -4 14 -6 7 -12
25 -13 40 -1 14 -5 26 -8 26 -5 0 -8 22 -14 100 -1 14 -6 32 -11 39 -6 10 -4
12 5 6 10 -6 11 -4 4 6 -13 21 -13 89 0 89 7 0 7 3 1 8 -5 4 -11 18 -13 31 -3
17 0 21 10 16 10 -6 10 -5 1 5 -6 7 -9 19 -6 28 5 11 3 13 -7 7 -10 -6 -11 -4
-4 6 13 21 15 141 2 133 -7 -5 -8 -2 -2 7 5 8 9 34 9 59 0 25 4 51 9 58 4 7 3
18 -3 25 -11 14 -9 56 4 77 5 8 4 11 -1 7 -8 -5 -11 155 -4 173 1 3 1 10 0 15
-7 31 -7 86 1 90 4 3 5 16 1 28 -10 27 -9 98 2 115 4 7 3 12 -2 12 -4 0 -8 22
-8 50 1 27 5 50 10 50 5 0 2 8 -5 17 -12 14 -12 16 0 8 11 -6 12 -5 5 6 -12
19 -11 82 1 92 6 4 5 10 -3 16 -17 11 -17 21 0 32 7 5 8 9 2 9 -11 0 -12 55
-1 66 4 4 2 13 -4 20 -7 8 -7 14 1 19 8 5 8 11 -1 21 -6 8 -7 14 -2 14 5 0 10
7 10 15 0 8 -3 15 -7 15 -4 0 -7 7 -7 15 0 8 3 15 6 15 6 0 6 64 1 85 -1 6 -1
15 0 20 8 38 8 45 -1 50 -5 4 -5 14 -1 23 10 21 9 113 -1 130 -5 7 -3 12 3 12
7 0 8 6 0 19 -6 12 -6 22 -1 25 10 7 9 25 -2 44 -5 6 -4 12 1 12 5 0 9 7 9 15
0 8 -5 15 -10 15 -5 0 -4 7 3 15 9 11 9 15 1 15 -7 0 -9 5 -4 13 11 17 11 30
0 45 -6 8 -5 12 4 12 9 0 10 3 2 11 -7 7 -8 21 -3 40 5 16 5 31 0 34 -5 3 -5
19 0 35 5 17 5 30 1 30 -9 0 -7 63 4 79 4 7 4 16 -1 20 -11 7 -11 32 -1 49 5
6 4 12 -1 12 -5 0 -9 7 -9 15 0 8 3 15 7 15 3 0 6 9 6 20 0 11 -4 20 -9 20 -5
0 -4 7 3 15 9 11 9 15 1 15 -7 0 -9 5 -4 13 11 18 12 37 2 37 -6 0 -5 9 2 21
8 16 8 20 -1 14 -9 -6 -9 -2 -1 14 9 16 9 21 -1 21 -8 0 -9 3 -3 8 13 9 15 42
3 42 -6 0 -6 6 1 14 8 10 9 16 1 21 -6 3 -7 11 -4 17 11 18 11 78 0 78 -6 0
-6 4 1 11 7 7 8 20 3 34 -4 12 -4 28 0 35 5 8 5 21 0 30 -6 11 -5 21 2 28 9 9
9 12 0 12 -10 0 -10 5 -1 21 9 17 8 20 -2 14 -7 -5 -10 -4 -6 2 12 18 16 63 6
69 -5 3 -6 10 -2 17 10 16 10 127 0 127 -4 0 -5 5 -1 12 12 19 12 108 0 108
-6 0 -6 4 2 12 7 7 8 17 1 30 -6 11 -6 18 0 18 10 0 10 19 -1 35 -4 6 -3 17 2
25 5 9 5 19 -2 27 -8 10 -7 13 3 13 10 0 10 3 1 12 -7 7 -8 17 -1 30 7 12 6
18 -1 18 -6 0 -8 5 -3 13 11 18 12 37 2 37 -6 0 -5 8 1 20 8 14 8 20 0 20 -7
0 -8 6 0 19 7 14 7 22 0 26 -8 5 -7 11 1 21 9 11 9 14 0 14 -8 0 -9 5 -2 18 7
13 6 23 -1 30 -9 9 -9 12 1 12 7 0 9 5 4 13 -11 17 -11 30 0 45 6 8 5 12 -4
12 -11 0 -11 2 1 10 11 7 11 10 2 10 -9 0 -10 5 -3 19 6 10 8 21 4 24 -10 11
-9 52 2 60 7 4 7 10 0 15 -15 11 -17 32 -3 32 9 0 9 3 1 11 -7 7 -8 21 -3 40
5 16 5 31 0 34 -5 3 -5 19 0 35 5 17 5 30 0 30 -9 0 -6 33 5 50 3 6 2 10 -3
10 -12 0 -9 83 3 92 7 5 7 8 0 8 -9 0 -13 102 -5 120 1 3 1 10 0 15 -8 26 -4
125 4 125 4 0 3 7 -5 16 -8 10 -9 18 -2 22 5 4 9 24 9 45 -1 20 2 37 7 37 5 0
5 10 2 21 -4 13 -3 19 2 16 6 -4 8 4 5 20 -3 16 -1 24 5 20 6 -4 10 1 10 11 0
49 4 63 14 56 8 -5 10 3 7 24 -2 17 -1 29 3 27 7 -5 23 24 21 38 -1 4 3 7 9 7
5 0 7 5 4 10 -3 6 -1 10 5 10 6 0 8 5 5 10 -3 6 -3 10 2 10 4 0 14 14 22 31 7
16 16 28 19 25 6 -7 38 36 34 47 -2 7 14 11 32 8 5 -1 6 5 3 14 -4 8 -2 15 4
15 6 0 17 7 26 15 8 8 19 12 25 9 6 -4 8 -2 4 4 -3 6 10 18 33 28 22 10 38 21
36 25 -3 4 2 10 11 13 10 4 13 2 9 -7 -4 -6 1 -3 9 7 9 11 16 16 16 12 0 -5 7
-2 16 5 9 7 22 14 30 15 7 1 21 9 30 18 8 9 20 14 25 11 5 -4 9 -2 9 4 0 6 7
7 17 4 9 -4 14 -2 10 3 -3 6 14 19 38 29 27 11 42 22 38 29 -4 6 0 5 9 -2 12
-10 17 -10 27 1 6 8 7 17 3 21 -4 4 -2 6 3 5 15 -4 57 12 73 27 7 8 20 14 28
14 8 0 14 5 14 11 0 5 5 7 10 4 6 -3 10 -1 10 4 0 6 3 10 8 9 12 -3 62 25 62
34 0 5 5 6 11 3 5 -4 19 1 29 10 10 9 24 14 31 9 7 -4 10 -3 6 2 -3 6 15 21
41 34 26 14 50 29 54 35 4 5 8 6 8 2 0 -5 13 1 30 13 16 12 34 18 40 15 5 -3
10 -1 10 4 0 6 7 11 16 11 9 0 12 5 8 12 -5 8 -2 9 9 5 10 -3 17 -2 17 4 0 6
5 7 10 4 6 -3 10 -1 10 5 0 6 4 8 10 5 6 -3 10 -2 10 3 0 6 11 13 25 16 16 4
23 11 19 18 -4 7 -3 8 4 4 10 -6 49 10 62 25 3 3 28 17 57 30 28 13 49 27 47
31 -3 5 -2 7 3 6 14 -4 53 13 53 23 0 6 5 7 10 4 6 -3 10 -1 10 5 0 7 7 10 15
6 10 -3 15 1 15 11 0 9 3 13 6 10 7 -7 94 40 105 56 4 5 11 7 17 3 5 -3 13 1
16 10 3 9 12 14 19 11 6 -2 25 7 41 22 16 14 25 19 21 11 -7 -12 -6 -13 7 -3
8 7 19 9 23 5 5 -4 5 -2 2 5 -6 10 40 35 70 37 6 1 20 9 30 19 11 9 25 17 31
17 7 0 12 4 12 8 0 5 25 19 56 32 30 13 59 31 64 39 8 13 9 13 10 2 0 -11 4
-10 13 4 9 11 19 15 27 10 7 -5 11 -4 8 1 -3 5 10 17 29 27 22 11 32 13 28 5
-4 -7 5 0 19 15 14 15 26 25 26 21 0 -4 9 1 20 11 12 11 20 13 20 6 0 -9 4 -8
14 1 8 7 12 15 11 18 -2 3 6 7 17 7 12 1 24 7 28 14 4 6 12 9 18 5 5 -3 13 1
16 10 3 8 10 12 16 9 5 -3 10 -1 10 5 0 6 5 8 10 5 6 -3 10 -1 10 5 0 6 5 8
10 5 6 -3 10 -1 10 6 0 7 3 10 6 6 3 -3 23 5 44 18 21 13 41 21 44 18 3 -4 6
-1 6 6 0 7 5 9 10 6 6 -3 10 0 10 8 0 9 9 13 25 12 14 -2 23 1 19 7 -3 5 3 12
15 15 12 3 21 10 21 15 0 5 4 7 9 3 5 -3 16 1 24 9 8 8 17 12 21 9 3 -4 6 -1
6 6 0 8 7 11 15 7 10 -3 15 1 15 12 0 15 2 15 10 2 8 -13 10 -12 10 3 0 9 3
16 8 15 4 -1 23 6 42 17 19 11 38 19 42 20 4 0 16 8 27 17 11 9 22 14 25 11 3
-3 8 2 12 11 3 9 10 16 16 16 5 0 6 -5 3 -11 -4 -6 2 -5 14 3 12 7 21 16 21
21 0 4 5 5 10 2 6 -3 10 -1 10 4 0 6 9 11 21 11 11 0 17 4 14 10 -3 6 1 7 9 4
9 -3 16 -1 16 6 0 6 5 8 10 5 6 -3 10 -2 10 2 0 5 20 17 45 28 25 11 45 23 45
27 0 5 3 8 8 7 17 -3 51 14 46 22 -3 5 4 9 15 9 11 0 23 5 26 10 4 6 11 8 16
5 5 -4 9 -2 9 4 0 6 11 13 25 17 14 3 25 10 25 14 0 8 38 23 53 21 4 -1 7 4 7
9 0 6 7 10 15 10 8 0 15 6 15 13 0 8 4 7 10 -3 9 -13 14 -7 11 12 0 5 2 7 7 6
11 -3 92 36 92 44 0 4 7 5 15 2 8 -4 15 -2 15 4 0 5 18 17 41 26 22 9 37 21
34 26 -3 6 1 7 10 4 9 -4 24 1 34 10 10 9 21 13 24 9 4 -3 7 -2 7 3 0 6 16 16
35 24 19 8 35 16 35 20 0 3 16 12 35 19 19 7 35 17 35 22 0 5 3 8 8 7 16 -4
52 14 46 24 -4 6 -2 8 4 5 10 -7 91 30 103 46 3 5 10 9 15 9 5 0 19 4 32 9 13
5 28 9 33 9 5 0 9 5 9 10 0 6 8 10 18 10 10 0 23 5 30 12 7 7 12 8 12 4 0 -5
12 -1 26 9 18 11 24 13 19 4 -6 -11 -5 -12 6 -1 7 6 21 12 32 12 10 0 16 4 13
9 -3 5 7 8 24 7 18 -1 32 4 35 12 3 8 12 11 20 8 8 -3 15 -1 15 5 0 6 4 8 10
4 5 -3 25 1 44 9 19 8 37 12 40 8 3 -3 6 -1 6 4 0 6 10 11 23 11 12 1 40 5 62
8 22 3 50 6 63 7 12 0 22 4 22 8 0 3 14 4 31 2 25 -4 30 -2 24 9 -7 12 -6 12
8 0 11 -9 41 -14 77 -14z"/>
<path d="M5798 9815 c-3 -3 -79 -7 -169 -10 -90 -2 -182 -6 -204 -9 -22 -3
-76 -10 -121 -16 -44 -6 -91 -13 -105 -15 -13 -3 -37 -7 -54 -9 -16 -2 -60
-11 -98 -20 -37 -9 -81 -18 -99 -21 -17 -3 -34 -8 -38 -10 -3 -2 -20 -7 -36
-10 -31 -6 -40 -9 -64 -17 -8 -3 -49 -15 -90 -28 -157 -47 -472 -190 -636
-290 -36 -22 -68 -40 -71 -40 -5 0 -124 -81 -133 -90 -3 -3 -34 -28 -70 -55
-36 -27 -67 -52 -70 -55 -3 -3 -22 -18 -44 -34 -67 -50 -124 -114 -146 -163
-50 -110 -15 -253 91 -367 128 -138 241 -172 362 -110 47 24 78 45 213 141 34
23 67 43 73 43 6 0 11 4 11 9 0 5 10 13 23 17 12 4 24 10 27 14 3 4 25 18 50
32 25 14 83 48 130 75 79 46 180 92 211 97 8 1 19 4 24 8 6 3 37 14 70 23 33
10 65 20 70 21 14 5 82 20 140 32 47 10 164 23 230 25 24 1 36 11 64 52 19 27
40 57 47 65 60 68 84 96 84 101 0 3 10 17 23 31 12 14 38 44 57 68 19 23 53
63 76 89 22 25 52 59 65 75 61 73 149 157 158 152 6 -4 33 -37 60 -74 28 -37
54 -71 58 -77 5 -5 22 -28 38 -50 17 -22 35 -45 40 -51 6 -6 26 -31 45 -55 19
-23 60 -71 90 -104 51 -57 102 -116 162 -188 24 -30 26 -30 183 -41 164 -12
328 -59 522 -148 35 -16 64 -27 66 -26 1 2 9 -3 17 -10 8 -7 38 -28 65 -46
101 -66 152 -102 250 -175 190 -142 205 -151 249 -151 100 0 201 61 291 175
116 148 134 278 54 389 -37 51 -312 276 -338 276 -5 0 -11 4 -13 8 -1 5 -28
24 -58 43 -103 66 -185 116 -220 135 -19 11 -37 21 -40 24 -8 10 -170 86 -245
115 -131 53 -253 91 -355 111 -14 3 -50 12 -82 20 -66 17 -194 41 -305 58 -26
4 -52 7 -178 22 -27 3 -125 7 -217 9 -92 2 -171 6 -176 9 -5 3 -11 3 -14 1z"/>
<path d="M5796 9398 c-7 -18 -32 -51 -55 -73 -22 -21 -41 -43 -41 -47 0 -10
-11 -25 -62 -79 -21 -22 -38 -44 -38 -49 0 -6 -4 -10 -8 -10 -4 0 -15 -12 -24
-27 -9 -16 -25 -37 -35 -48 -10 -11 -58 -71 -107 -132 -49 -62 -93 -113 -97
-113 -21 0 -15 -37 13 -78 35 -51 195 -251 213 -267 7 -5 29 -32 51 -60 42
-54 83 -101 128 -149 15 -17 34 -43 42 -58 17 -32 29 -35 48 -10 67 81 85 103
111 137 17 21 46 55 65 76 36 39 93 105 151 174 19 22 42 47 51 56 10 9 18 19
18 23 0 4 14 21 30 39 17 18 33 40 36 49 3 9 14 20 25 23 25 8 24 29 -3 58
-13 13 -42 50 -65 83 -38 52 -72 95 -116 144 -7 8 -30 36 -51 63 -22 26 -56
66 -77 90 -50 54 -55 60 -113 137 -62 84 -72 89 -90 48z"/>
<path d="M5607 7793 c-1 -1 -33 -4 -72 -8 -107 -9 -216 -25 -260 -37 -48 -14
-40 -12 -90 -22 -139 -27 -328 -91 -524 -178 -117 -51 -319 -150 -376 -183
-61 -36 -258 -165 -265 -174 -3 -4 -34 -29 -69 -56 -36 -28 -79 -63 -96 -80
-17 -16 -51 -46 -76 -65 -74 -59 -180 -161 -279 -270 -24 -27 -62 -81 -65 -93
-1 -7 -6 -21 -11 -32 -9 -20 -11 -148 -3 -175 9 -30 51 -105 68 -121 9 -8 27
-29 41 -45 56 -67 185 -134 245 -127 51 5 59 7 118 41 52 29 83 52 137 102 27
25 153 135 184 161 16 13 37 31 46 40 25 24 171 141 205 165 65 45 181 122
206 135 33 18 250 125 314 154 115 53 334 118 398 119 9 0 17 3 17 6 0 4 6 7
13 7 6 0 32 3 57 7 123 17 176 20 305 20 132 0 299 -9 327 -19 7 -2 31 -6 54
-9 155 -19 392 -92 574 -178 70 -33 299 -163 335 -191 6 -4 43 -31 83 -59 39
-28 72 -55 72 -60 0 -4 5 -8 11 -8 6 0 16 -6 23 -12 8 -7 35 -32 62 -54 88
-75 223 -195 260 -231 13 -13 27 -23 32 -23 5 0 19 -11 32 -25 13 -14 29 -25
37 -25 7 0 13 -4 13 -8 0 -15 94 -56 123 -54 16 1 44 9 62 16 18 8 36 12 39 8
3 -3 6 -1 6 5 0 5 12 15 28 22 30 14 131 92 132 103 0 3 11 23 25 45 14 21 26
43 26 48 1 6 6 21 11 35 18 46 23 95 14 135 -2 11 -5 25 -5 31 -1 6 -24 47
-52 90 -47 72 -230 265 -344 363 -68 58 -228 186 -265 211 -19 13 -37 27 -40
30 -5 7 -154 108 -182 125 -86 49 -270 144 -323 167 -22 9 -83 31 -135 48 -52
18 -102 35 -110 38 -8 3 -20 6 -26 7 -6 2 -49 15 -97 29 -91 28 -144 40 -292
65 -33 6 -78 13 -100 16 -22 2 -49 7 -60 9 -58 12 -509 29 -518 19z"/>
<path d="M5788 6315 c-1 -1 -43 -6 -93 -10 -49 -4 -106 -9 -125 -10 -44 -4
-178 -33 -205 -45 -52 -22 -155 -60 -164 -60 -6 0 -11 -3 -11 -7 0 -5 -25 -19
-55 -33 -30 -14 -55 -29 -55 -33 0 -5 -4 -5 -10 -2 -5 3 -10 3 -10 -2 0 -4
-12 -14 -27 -21 -57 -25 -208 -147 -310 -249 -40 -41 -73 -71 -73 -69 0 3 -10
-5 -23 -17 -13 -12 -42 -38 -66 -57 -43 -35 -66 -54 -109 -91 -12 -10 -26 -19
-31 -19 -21 0 -39 -70 -44 -168 -5 -92 -7 -104 -29 -122 -12 -11 -26 -19 -30
-20 -4 0 -14 -8 -24 -17 -10 -10 -21 -18 -25 -18 -5 0 -17 -8 -29 -17 -11 -10
-20 -15 -20 -11 0 3 -9 -2 -20 -12 -11 -10 -20 -14 -20 -9 0 5 -4 4 -8 -2 -4
-6 -20 -19 -37 -28 -16 -10 -57 -33 -90 -52 -33 -19 -68 -37 -77 -41 -10 -3
-18 -9 -18 -14 0 -5 -7 -9 -15 -9 -8 0 -15 -5 -15 -10 0 -6 -3 -9 -7 -8 -5 2
-28 -11 -53 -28 -40 -28 -71 -46 -159 -93 -14 -8 -28 -17 -31 -21 -3 -3 -21
-15 -40 -26 -19 -10 -37 -22 -40 -25 -3 -3 -21 -14 -40 -25 -19 -10 -43 -27
-54 -36 -11 -10 -23 -18 -28 -18 -4 0 -8 -7 -8 -15 0 -8 -5 -15 -10 -15 -6 0
-9 -3 -9 -7 1 -5 0 -10 -1 -13 -8 -16 -17 -807 -10 -845 1 -5 3 -14 4 -20 7
-39 93 -144 118 -145 12 0 112 -63 120 -74 4 -6 8 -8 8 -3 0 4 19 -5 42 -20
24 -14 49 -26 55 -26 7 0 13 -4 13 -9 0 -8 39 -27 50 -24 3 0 16 -9 29 -21 13
-12 28 -20 33 -17 4 3 8 0 8 -5 0 -6 15 -17 34 -25 18 -8 37 -19 40 -25 4 -6
12 -9 17 -6 5 4 9 2 9 -2 0 -5 26 -22 58 -38 31 -16 63 -34 71 -39 13 -10 21
-12 76 -21 50 -8 495 -9 502 -1 4 4 8 169 9 366 1 198 5 364 9 370 3 5 2 10
-2 10 -12 0 -10 64 2 72 6 5 6 8 -2 8 -8 0 -9 9 -4 28 4 15 6 33 4 40 -3 7 -2
19 1 28 5 12 10 13 28 3 13 -7 25 -15 28 -18 3 -3 21 -15 40 -25 19 -11 41
-26 48 -33 7 -7 19 -13 26 -13 7 0 22 -9 34 -20 12 -12 22 -18 22 -14 0 4 8 0
18 -9 9 -8 24 -17 32 -19 8 -2 17 -6 20 -9 9 -11 140 -89 149 -89 5 0 11 -4
13 -8 3 -8 80 -55 131 -81 15 -7 27 -17 27 -21 0 -4 14 -13 30 -20 17 -7 30
-15 30 -19 0 -3 15 -12 33 -20 17 -8 46 -24 63 -37 17 -13 34 -20 38 -17 3 4
6 1 6 -5 0 -6 9 -13 19 -17 11 -3 33 -18 49 -33 l30 -27 -3 -180 c-1 -99 -4
-182 -5 -185 -1 -3 -1 -9 0 -15 6 -25 6 -126 0 -130 -7 -5 -6 -48 3 -62 7 -11
2 -46 -8 -62 -3 -5 -2 -12 3 -15 4 -2 7 -20 6 -38 -3 -47 -3 -48 -14 -48 -15
0 -144 -63 -152 -75 -4 -5 -8 -7 -8 -2 0 15 -111 -91 -155 -148 -45 -59 -100
-179 -109 -238 -1 -7 -5 -17 -9 -24 -4 -6 -3 -14 2 -18 7 -3 7 -15 1 -29 -5
-13 -7 -26 -4 -29 3 -3 7 -35 9 -71 10 -182 137 -383 295 -469 115 -63 232
-82 380 -63 174 23 291 93 400 241 40 55 87 147 96 185 18 91 21 121 18 200
-2 49 -8 99 -14 111 -7 11 -9 23 -6 26 7 8 -69 149 -107 198 -58 74 -145 141
-242 186 -52 24 -67 37 -59 51 3 4 -1 8 -8 8 -8 0 -9 3 -3 8 14 9 14 225 0
234 -7 5 -7 8 1 8 12 0 13 118 1 137 -4 6 -4 14 1 17 4 2 8 78 7 168 -1 176 0
178 58 207 15 8 27 18 27 23 0 5 4 7 9 4 5 -3 14 1 21 9 7 8 19 15 26 15 8 0
14 5 14 10 0 6 6 10 13 10 6 0 40 18 75 40 34 22 67 40 72 40 6 0 10 5 10 10
0 6 9 10 20 10 11 0 20 4 20 9 0 5 12 14 28 20 15 6 41 19 57 29 17 10 59 34
95 53 36 18 71 39 78 46 7 7 19 13 26 13 7 0 23 9 36 20 12 11 27 17 31 14 5
-3 9 -2 9 3 0 4 22 18 50 31 27 12 55 29 63 36 7 7 22 16 33 20 20 6 20 2 20
-413 1 -230 4 -423 8 -430 4 -6 2 -11 -4 -11 -7 0 -8 -6 -2 -16 5 -9 7 -25 5
-35 -5 -18 6 -19 259 -18 l265 0 94 48 c111 56 223 121 227 133 2 4 12 8 23 8
10 0 19 5 19 10 0 6 7 10 15 10 8 0 15 5 15 11 0 5 4 8 9 5 5 -3 14 1 21 9 7
8 16 12 21 9 5 -3 9 -1 9 4 0 6 11 13 24 16 14 3 31 12 38 19 7 6 31 21 53 32
50 25 59 32 104 75 42 42 64 71 70 91 4 15 2 845 -2 892 -3 30 -53 88 -95 110
-36 18 -76 41 -82 47 -3 3 -25 16 -50 29 -25 13 -55 33 -67 44 -12 11 -27 16
-34 12 -8 -5 -10 -4 -5 3 4 7 1 12 -7 12 -8 0 -20 7 -27 15 -7 9 -15 14 -17
11 -4 -4 -62 31 -89 53 -7 6 -14 8 -17 5 -2 -2 -10 2 -17 11 -7 8 -19 15 -26
15 -8 0 -14 5 -14 10 0 6 -7 10 -15 10 -8 0 -15 5 -15 10 0 6 -3 9 -7 8 -5 -1
-21 6 -38 16 -16 11 -47 30 -67 43 -21 12 -40 23 -43 23 -9 0 -136 85 -161
106 -18 17 -21 30 -20 119 1 104 -7 133 -47 167 -53 47 -121 104 -139 118 -11
8 -33 27 -50 43 -16 15 -34 27 -40 27 -5 0 -6 5 -3 10 3 6 1 10 -4 10 -13 0
-53 34 -120 100 -50 49 -208 170 -250 191 -14 8 -28 16 -31 19 -5 6 -141 74
-150 76 -3 0 -23 8 -45 18 -22 9 -48 18 -57 19 -10 1 -18 4 -18 8 0 4 -10 9
-22 12 -13 3 -52 13 -88 22 -36 9 -78 19 -95 22 -16 2 -41 6 -55 9 -14 2 -61
6 -105 9 -44 3 -85 8 -92 10 -6 2 -13 2 -15 0z m-141 -920 c-2 -88 -7 -166
-10 -172 -4 -7 -3 -14 2 -17 8 -5 8 -52 1 -81 -1 -5 -1 -12 0 -15 8 -17 4
-110 -4 -110 -7 0 -6 -3 1 -8 17 -11 5 -24 -48 -54 -64 -37 -120 -97 -158
-167 -17 -33 -31 -63 -31 -66 1 -3 -1 -18 -4 -33 -3 -15 -8 -39 -10 -55 -6
-32 26 -151 55 -211 24 -48 135 -158 179 -177 21 -10 30 -21 30 -36 0 -13 -4
-23 -10 -23 -5 0 -10 5 -10 12 0 6 -3 9 -6 5 -4 -3 -26 7 -50 23 -23 17 -47
30 -53 30 -6 0 -11 5 -11 11 0 5 -4 8 -9 5 -5 -4 -11 -3 -13 1 -4 10 -88 65
-88 58 0 -3 -7 0 -15 7 -34 29 -41 33 -55 36 -8 2 -17 7 -20 11 -3 4 -22 15
-42 24 -21 10 -38 21 -38 25 0 4 -12 13 -27 19 -28 11 -83 43 -93 53 -3 3 -21
13 -40 23 -63 34 -95 52 -100 58 -3 3 -25 16 -50 30 -25 13 -49 28 -55 32 -5
4 -39 25 -75 46 l-64 38 -1 309 c-1 170 1 314 3 321 3 8 10 6 24 -7 29 -27
115 -67 168 -79 106 -23 175 0 345 114 132 88 274 164 320 172 17 3 31 6 33 7
1 2 9 3 17 3 12 0 14 -25 12 -162z m420 133 c7 -6 13 -8 13 -5 0 3 33 -10 73
-30 73 -35 158 -92 188 -125 9 -10 21 -18 26 -18 5 0 22 -10 36 -23 64 -55
208 -86 297 -65 54 13 153 76 143 91 -3 5 -2 7 4 4 6 -4 10 -72 9 -182 0 -96
3 -175 7 -175 5 0 5 -5 2 -10 -4 -6 -8 -69 -9 -140 -2 -85 -7 -134 -15 -144
-13 -16 -163 -101 -170 -97 -2 2 -7 -1 -10 -6 -3 -4 -22 -16 -41 -27 -19 -10
-41 -26 -48 -35 -7 -9 -16 -15 -20 -15 -9 2 -36 -8 -42 -15 -3 -3 -32 -19 -65
-36 -33 -16 -62 -33 -65 -36 -3 -3 -12 -8 -20 -12 -8 -4 -33 -18 -55 -32 -22
-14 -48 -28 -57 -31 -10 -4 -18 -9 -18 -13 0 -4 -16 -13 -35 -21 -19 -8 -35
-16 -35 -19 0 -3 -20 -15 -45 -26 -25 -11 -45 -22 -45 -25 0 -3 -16 -12 -35
-19 -19 -7 -35 -16 -35 -20 0 -4 -7 -8 -15 -8 -21 0 -8 15 33 37 76 39 132
110 179 226 40 99 39 186 -4 269 -17 33 -45 77 -62 99 -34 43 -127 116 -148
116 -16 0 -15 -12 -17 187 0 89 -4 165 -8 169 -4 4 -4 12 0 18 4 6 8 54 8 106
1 52 2 100 3 106 1 14 77 0 98 -18z m1168 -708 c12 0 94 -39 105 -50 5 -5 28
-19 75 -45 17 -9 41 -24 150 -92 11 -7 36 -22 55 -33 60 -35 74 -44 92 -63 9
-10 18 -17 20 -15 2 1 12 -4 24 -12 22 -16 26 -60 27 -310 0 -185 0 -187 -73
-226 -19 -10 -37 -22 -40 -25 -8 -10 -75 -43 -82 -41 -5 1 -8 -1 -8 -6 0 -4
-26 -20 -58 -37 -31 -16 -59 -33 -62 -36 -7 -8 -44 -22 -52 -21 -5 1 -8 -1 -8
-6 0 -4 -20 -16 -45 -27 -25 -11 -45 -23 -45 -27 0 -5 -5 -8 -10 -8 -6 0 -28
-11 -50 -25 -22 -14 -41 -24 -41 -23 -1 2 -2 37 -3 78 -1 41 -4 80 -8 85 -4 6
-3 17 2 25 5 8 5 21 0 30 -5 9 -5 22 0 30 5 9 5 19 -2 27 -6 8 -6 13 -1 13 5
0 9 10 7 23 -1 12 -3 22 -4 22 -1 0 -3 10 -4 23 -2 12 1 22 5 22 5 0 5 10 0
23 -5 12 -5 32 0 44 5 13 4 25 -2 28 -5 4 -6 12 -2 18 10 17 10 80 -1 95 -5 7
-5 12 1 12 11 0 11 36 0 46 -3 4 -3 12 0 18 11 17 11 46 0 46 -6 0 -6 5 1 13
5 6 6 21 2 32 -4 11 -4 30 1 42 5 13 4 25 -2 28 -5 4 -6 12 -2 18 10 17 11 47
1 47 -5 0 -6 6 -2 12 12 19 12 48 0 48 -6 0 -6 4 2 12 7 7 8 17 2 28 -5 9 -5
22 0 30 5 8 5 21 -1 31 -6 12 -5 20 1 24 7 4 8 11 2 18 -6 8 -6 21 0 37 6 15
12 20 15 13 3 -7 11 -13 18 -13z m-2862 -565 c-1 -301 -4 -549 -6 -552 -6 -6
-111 47 -115 58 -2 5 -8 7 -13 3 -5 -3 -9 0 -9 6 0 6 -4 9 -9 6 -5 -3 -14 1
-21 9 -7 8 -16 12 -21 9 -5 -3 -9 -1 -9 4 0 4 -17 17 -37 28 -133 72 -180 99
-195 112 -10 8 -18 12 -18 8 0 -4 -10 2 -22 14 -20 18 -33 24 -41 18 -1 -2
-14 7 -27 20 l-25 23 -1 239 c0 234 0 240 20 246 12 4 49 26 83 50 35 24 65
44 68 44 4 0 63 38 91 57 22 16 50 33 84 50 19 9 38 22 42 27 4 6 11 11 15 12
10 0 86 37 93 44 13 14 56 27 65 20 6 -6 9 -200 8 -555z"/>
</g>
</svg>
